<svg width="92" height="97" viewBox="0 0 92 97" fill="none" xmlns="http://www.w3.org/2000/svg">
<path d="M45.9183 0.500936C45.6643 0.493342 45.4111 0.532017 45.171 0.615064L1.40409 15.8186C0.952681 15.9753 0.568681 16.2817 0.316038 16.6866C0.0633952 17.0915 -0.0426444 17.5706 0.0155768 18.0441L6.92958 74.6477C6.96996 74.978 7.08889 75.2939 7.27643 75.569C7.46398 75.8441 7.71471 76.0705 8.00772 76.2292L44.9055 96.2465C45.2133 96.4135 45.5583 96.5007 45.9086 96.5C46.259 96.4993 46.6036 96.4107 46.9107 96.2424L84.0005 75.952C84.2914 75.7927 84.5402 75.5666 84.7263 75.2923C84.9123 75.018 85.0303 74.7034 85.0704 74.3746L91.9844 17.7751C92.0429 17.2994 91.9356 16.8182 91.6805 16.4122C91.4254 16.0062 91.0381 15.7002 90.5837 15.5455L46.5309 0.610988C46.3334 0.544009 46.1269 0.506914 45.9183 0.500936ZM45.8693 4.79705L87.6269 18.9531L81.0478 72.8094L45.902 92.036L10.9522 73.0744L4.36899 19.2098L45.8693 4.79705ZM46.0735 8.84861C45.6629 8.8345 45.2573 8.94141 44.9072 9.15597C44.5572 9.37054 44.2782 9.68326 44.1051 10.0551L16.9228 68.4889C16.7746 68.8068 16.7091 69.1569 16.7323 69.5068C16.7555 69.8567 16.8666 70.1951 17.0555 70.4909C17.2443 70.7866 17.5048 71.03 17.8128 71.1987C18.1208 71.3675 18.4664 71.456 18.8177 71.4562H28.0963C28.4945 71.456 28.8843 71.3424 29.22 71.1286C29.5557 70.9149 29.8232 70.61 29.9912 70.2497L35.2472 58.951H56.7528L62.0088 70.2497C62.1768 70.61 62.4444 70.9149 62.78 71.1286C63.1157 71.3424 63.5056 71.456 63.9037 71.4562H73.1823C73.5336 71.456 73.8792 71.3675 74.1872 71.1987C74.4952 71.03 74.7557 70.7866 74.9445 70.4909C75.1334 70.1951 75.2445 69.8567 75.2677 69.5068C75.2909 69.1569 75.2254 68.8068 75.0772 68.4889L47.8949 10.0551C47.7324 9.70588 47.4762 9.40834 47.1548 9.1954C46.8333 8.98247 46.4591 8.86244 46.0735 8.84861ZM46 15.8879L69.907 67.2824H65.2391L59.9832 55.9836C59.8152 55.6234 59.5476 55.3184 59.212 55.1047C58.8763 54.891 58.4864 54.7773 58.0883 54.7771H33.9117C33.5136 54.7773 33.1237 54.891 32.7881 55.1047C32.4524 55.3184 32.1848 55.6234 32.0168 55.9836L26.7568 67.2824H22.093L46 15.8879ZM46.0817 28.6743C45.6682 28.6585 45.2592 28.7654 44.9067 28.9817C44.5541 29.1979 44.2737 29.5137 44.101 29.889L35.8924 47.6523C35.7459 47.9702 35.6819 48.3198 35.7062 48.6689C35.7304 49.018 35.8423 49.3554 36.0314 49.65C36.2205 49.9447 36.4808 50.1872 36.7883 50.3552C37.0959 50.5232 37.4408 50.6113 37.7914 50.6115H54.2086C54.5592 50.6113 54.9041 50.5232 55.2117 50.3552C55.5193 50.1872 55.7795 49.9447 55.9686 49.65C56.1577 49.3554 56.2696 49.018 56.2939 48.6689C56.3181 48.3198 56.2541 47.9702 56.1076 47.6523L47.899 29.889C47.7379 29.5388 47.4829 29.24 47.1621 29.0256C46.8414 28.8112 46.4674 28.6897 46.0817 28.6743ZM46 35.7422L50.9415 46.4376H41.0585L46 35.7422Z" fill="black"/>
</svg>
