<svg width="104" height="31" viewBox="0 0 104 31" fill="none" xmlns="http://www.w3.org/2000/svg">
<g clip-path="url(#clip0_1_14)">
<path d="M20.0331 17.9625C19.8161 17.8176 19.599 17.8176 19.5267 18.0349C19.0926 18.7592 17.2117 20.4975 14.535 20.4975C11.9306 20.4975 9.3262 18.4695 9.3262 14.7031C9.3262 10.9367 12.1476 8.98113 14.4626 8.98113C17.2117 8.98113 18.8756 10.8643 18.9479 12.1681V12.6751C18.9479 12.8924 19.0926 13.0372 19.3097 13.0372H20.7565C20.9736 13.0372 21.1182 12.8924 21.1182 12.6751V7.31522C21.1182 7.09797 20.9736 6.88065 20.7565 6.88065H19.599C19.382 6.88065 19.165 7.02553 19.165 7.31522V9.05356C18.5139 8.11199 17.067 6.73584 14.1733 6.73584C10.4114 6.73584 6.72183 9.56057 6.72183 14.6307C6.72183 19.6283 10.1944 22.598 14.4626 22.598C18.5862 22.598 20.7565 19.9905 21.1182 19.3386C21.2629 19.1213 21.2629 18.9765 21.0459 18.7592L20.0331 17.9625Z" fill="#333333"/>
<path d="M52.5882 14.7758C52.5882 9.7781 49.1157 6.80849 44.8474 6.80849C40.7238 6.80849 38.5534 9.41597 38.1917 10.0679C38.047 10.2851 38.1194 10.43 38.3364 10.6473L39.2046 11.5164C39.4216 11.6613 39.6386 11.6613 39.7833 11.444C40.2174 10.7197 42.0983 9.05384 44.775 9.05384C47.2347 9.05384 49.8391 10.7921 49.9838 14.4861H38.6258C38.3364 14.4861 38.1917 14.6309 38.1917 14.9206C38.1194 19.7734 40.7238 22.7431 45.2091 22.7431C48.971 22.6706 52.5882 19.9183 52.5882 14.7758ZM40.7961 16.3693H49.8391C49.4774 19.4113 47.2347 20.6426 45.1367 20.6426C42.4601 20.6426 40.9408 18.9043 40.7961 16.3693Z" fill="#333333"/>
<path d="M87.9634 14.7035C87.9634 9.7782 84.5632 6.80859 80.2227 6.80859C75.8821 6.80859 72.4092 9.70583 72.4092 14.7035C72.4092 19.6287 75.7374 22.6707 80.2227 22.6707C84.6352 22.6707 87.9634 19.5562 87.9634 14.7035ZM80.15 20.4978C77.3285 20.4978 75.0139 18.2525 75.0139 14.7035C75.0139 11.1544 77.4732 8.9815 80.2227 8.9815C82.8994 8.9815 85.3588 11.082 85.3588 14.7035C85.3588 18.2525 82.9714 20.4978 80.15 20.4978Z" fill="#333333"/>
<path d="M90.8575 22.4531H91.9425C92.1599 22.4531 92.3766 22.3082 92.3766 22.0185C92.3766 21.9461 92.3046 20.3526 92.3046 20.3526H92.3766C92.594 20.8596 94.0404 22.598 97.296 22.598C101.492 22.598 103.084 20.4975 103.084 18.1797C103.084 12.8924 93.4622 14.7755 93.4622 11.2265C93.4622 9.63301 94.9087 8.76387 96.4278 8.76387C99.2492 8.76387 100.335 10.4297 100.335 11.2989V11.7335C100.335 11.9507 100.552 12.1681 100.769 12.1681H101.999C102.215 12.1681 102.433 12.0232 102.433 11.7335V7.38766C102.433 7.17041 102.288 6.95309 101.999 6.95309H100.986C100.769 6.95309 100.552 7.09797 100.552 7.38766L100.624 8.54656H100.552C99.828 7.53254 98.4536 6.73584 96.0663 6.73584C93.1001 6.73584 90.8575 8.40168 90.8575 11.2265C90.8575 16.6587 100.262 15.0652 100.262 18.1797C100.262 19.7007 99.1045 20.6423 96.8619 20.6423C93.3175 20.6423 92.4493 17.9625 92.4493 17.9625V17.383C92.4493 17.1657 92.2319 16.9484 92.0152 16.9484H90.7855C90.5681 16.9484 90.3514 17.0933 90.3514 17.383V22.091C90.4234 22.3082 90.5681 22.4531 90.8575 22.4531Z" fill="#333333"/>
<path d="M36.3825 20.498H35.1526L33.3441 17.1662C33.0547 16.5867 32.7653 16.2246 32.5483 15.9349C34.5015 15.3555 35.5867 13.9068 35.5867 11.734C35.5867 8.83675 33.4887 7.02603 30.1609 7.02603H23.433C23.1436 7.02603 22.9989 7.17091 22.9989 7.4606V8.54706C22.9989 8.83675 23.1436 8.98163 23.433 8.98163H24.8798V20.5704H23.433C23.1436 20.5704 22.9989 20.7153 22.9989 21.005V22.0914C22.9989 22.3812 23.1436 22.526 23.433 22.526H28.9311C29.2205 22.526 29.3651 22.3812 29.3651 22.0914V21.005C29.3651 20.7153 29.2205 20.5704 28.9311 20.5704H27.1225V16.4419H29.7269C30.3779 16.4419 30.6673 16.7316 30.9567 17.3835L32.9823 21.3671C33.2717 21.9466 33.6334 22.4536 34.4292 22.4536H36.3102C36.5995 22.4536 36.7442 22.3087 36.7442 22.019V20.9326C36.8166 20.7153 36.6719 20.498 36.3825 20.498ZM33.3441 11.8064C33.3441 13.6896 32.1866 14.5587 29.7992 14.5587H27.1949V8.98163H29.7992C31.3907 8.98163 33.3441 9.48863 33.3441 11.8064Z" fill="#333333"/>
<path d="M63.0771 6.80805C60.2556 6.80805 58.5918 8.40151 57.9407 9.85009V6.30102V2.31738C57.9407 2.10009 57.796 1.95523 57.5066 1.95523H53.6724C53.4554 1.95523 53.2383 2.10009 53.2383 2.31738V3.62112C53.2383 3.8384 53.383 3.98327 53.6724 3.98327H55.481V6.22859V12.0954V22.0183C55.481 22.2356 55.6257 22.3804 55.8427 22.3804H57.4343C57.6513 22.3804 57.8683 22.2356 57.8683 22.0183V19.4108C58.5194 21.0043 60.2557 22.5977 63.0047 22.5977C67.2008 22.5977 70.0223 19.4832 70.0223 14.558C70.0943 10.0673 67.3455 6.80805 63.0771 6.80805ZM62.7154 20.4973C60.0386 20.4973 57.9407 18.2519 57.9407 14.7029C57.9407 11.009 60.1834 8.98096 62.7154 8.98096C65.3923 8.98096 67.5623 11.0814 67.5623 14.6305C67.5623 18.1795 65.537 20.4973 62.7154 20.4973Z" fill="#333333"/>
<path d="M12.3644 0H2.45329H0.861719H0.5V0.362149V1.66589V2.39018V3.62149V11.9509C0.5 12.1682 0.644688 12.3131 0.861719 12.3131H2.16391C2.38094 12.3131 2.52563 12.1682 2.52563 11.9509V3.62149V2.31776V1.95561H12.4368C12.6538 1.95561 12.7985 1.81075 12.7985 1.59346V0.362149C12.7261 0.14486 12.5814 0 12.3644 0Z" fill="#EC6D06"/>
<path d="M36.0928 28.4652C36.0204 28.4652 35.9481 28.3928 35.9481 28.3204V28.1755C35.9481 28.1031 36.0204 28.0306 36.0928 28.0306L38.6972 26.7993C38.7695 26.7993 38.7695 26.7993 38.7695 26.8717V27.2339C38.7695 27.3064 38.6972 27.3787 38.6972 27.3787L36.8163 28.2479L38.7695 29.1895C38.8419 29.1895 38.8419 29.2619 38.8419 29.3344V29.6965C38.8419 29.769 38.7695 29.769 38.7695 29.769L36.0928 28.4652Z" fill="#333333"/>
<path d="M40.0724 28.2481C40.0724 27.0168 40.9405 26.2925 42.0257 26.2925C43.1108 26.2925 43.9789 27.0168 43.9789 28.2481C43.9789 29.4794 43.1108 30.2761 42.0257 30.2761C40.9405 30.2761 40.0724 29.4794 40.0724 28.2481ZM43.3279 28.2481C43.3279 27.3789 42.6768 26.7995 42.0257 26.7995C41.3745 26.7995 40.7235 27.3065 40.7235 28.2481C40.7235 29.1172 41.3023 29.6967 42.0257 29.6967C42.7491 29.6967 43.3279 29.1896 43.3279 28.2481Z" fill="#333333"/>
<path d="M48.0294 30.2031C47.8124 30.2031 47.6677 30.1306 47.6677 29.8409V27.7404C47.6677 27.161 47.3783 26.7988 46.7996 26.7988C46.0038 26.7988 45.7867 27.4507 45.7867 27.4507V29.6236H46.2208C46.2932 29.6236 46.2932 29.6236 46.2932 29.6961V30.0582C46.2932 30.1306 46.2208 30.1306 46.2208 30.1306H44.7016C44.6292 30.1306 44.6292 30.1306 44.6292 30.0582V29.6961C44.6292 29.6236 44.7016 29.6236 44.7016 29.6236H45.1356V26.7988H44.7016C44.6292 26.7988 44.6292 26.7988 44.6292 26.7264V26.3643C44.6292 26.2918 44.7016 26.2918 44.7016 26.2918H45.6421C45.7144 26.2918 45.7144 26.2918 45.7144 26.3643V26.8713C45.7868 26.7264 46.1485 26.2194 46.9442 26.2194C47.8124 26.2194 48.2464 26.7264 48.3188 27.5956V29.6961H48.7529C48.8252 29.6961 48.8252 29.6961 48.8252 29.7685V30.1306C48.8252 30.2031 48.7529 30.2031 48.7529 30.2031H48.0294Z" fill="#333333"/>
<path d="M49.4769 30.2028C49.4045 30.2028 49.4045 30.2028 49.4045 30.1304V29.7682C49.4045 29.6958 49.4769 29.6958 49.4769 29.6958H49.9109V25.1327H49.4769C49.4045 25.1327 49.4045 25.1327 49.4045 25.0603V24.6982C49.4045 24.6257 49.4769 24.6257 49.4769 24.6257H50.345C50.4897 24.6257 50.562 24.6982 50.562 24.843V29.6958H50.9961C51.0684 29.6958 51.0684 29.6958 51.0684 29.7682V30.1304C51.0684 30.2028 50.9961 30.2028 50.9961 30.2028H49.4769Z" fill="#333333"/>
<path d="M51.7916 30.2033C51.7192 30.2033 51.7192 30.2033 51.7192 30.1309V29.7687C51.7192 29.6963 51.7916 29.6963 51.7916 29.6963H52.2256V26.8716H51.7916C51.7192 26.8716 51.7192 26.8716 51.7192 26.7991V26.4369C51.7192 26.3646 51.7916 26.3646 51.7916 26.3646H52.8044C52.8767 26.3646 52.8767 26.3646 52.8767 26.4369V29.6963H53.3108C53.3831 29.6963 53.3831 29.6963 53.3831 29.7687V30.1309C53.3831 30.2033 53.3108 30.2033 53.3108 30.2033H51.7916ZM52.515 25.9299C52.298 25.9299 52.081 25.7127 52.081 25.4954C52.081 25.2781 52.298 25.0608 52.515 25.0608C52.732 25.0608 52.9491 25.2781 52.9491 25.4954C52.9491 25.7851 52.732 25.9299 52.515 25.9299Z" fill="#333333"/>
<path d="M57.362 30.2031C57.1449 30.2031 57.0002 30.1306 57.0002 29.8409V27.7404C57.0002 27.161 56.7109 26.7988 56.1321 26.7988C55.3364 26.7988 55.1193 27.4507 55.1193 27.4507V29.6236H55.5534C55.6257 29.6236 55.6257 29.6236 55.6257 29.6961V30.0582C55.6257 30.1306 55.5534 30.1306 55.5534 30.1306H54.0341C53.9618 30.1306 53.9618 30.1306 53.9618 30.0582V29.6961C53.9618 29.6236 54.0341 29.6236 54.0341 29.6236H54.4682V26.7988H54.0341C53.9618 26.7988 53.9618 26.7988 53.9618 26.7264V26.3643C53.9618 26.2918 54.0341 26.2918 54.0341 26.2918H54.9746C55.047 26.2918 55.047 26.2918 55.047 26.3643V26.8713C55.1193 26.7264 55.481 26.2194 56.2768 26.2194C57.1449 26.2194 57.579 26.7264 57.6513 27.5956V29.6961H58.0854C58.1578 29.6961 58.1578 29.6961 58.1578 29.7685V30.1306C58.1578 30.2031 58.0854 30.2031 58.0854 30.2031H57.362Z" fill="#333333"/>
<path d="M59.3153 28.3923C59.3876 29.3339 59.9663 29.7684 60.6174 29.7684C61.2685 29.7684 61.7749 29.3339 61.8473 29.189C61.9196 29.1166 61.9196 29.1166 61.9919 29.189L62.209 29.4063C62.2813 29.4787 62.2813 29.4787 62.209 29.5511C62.1366 29.696 61.5579 30.3479 60.5451 30.3479C59.4599 30.3479 58.5918 29.6236 58.5918 28.3199C58.5918 27.0161 59.5323 26.3643 60.4727 26.3643C61.6302 26.3643 62.2813 27.0885 62.209 28.3199C62.209 28.3923 62.1366 28.3923 62.0643 28.3923H59.3153ZM61.5579 27.8853C61.5579 27.2334 61.1238 26.7988 60.4727 26.7988C59.9663 26.7988 59.3876 27.0885 59.3153 27.8853H61.5579Z" fill="#333333"/>
<path d="M65.8268 29.696C65.8268 29.696 65.8268 30.0581 65.8268 30.1306C65.8268 30.203 65.7548 30.203 65.6821 30.203H65.3927C65.3207 30.203 65.3207 30.1306 65.3207 30.1306V28.9717C65.3207 28.8993 65.3927 28.8993 65.3927 28.8993H65.6821C65.7548 28.8993 65.8268 28.9717 65.8268 28.9717V29.1166C65.8268 29.1166 66.0442 29.7685 66.9118 29.7685C67.4906 29.7685 67.78 29.5511 67.78 29.189C67.78 28.3923 65.3927 28.8269 65.3927 27.4507C65.3927 26.7264 65.9715 26.3643 66.6951 26.3643C67.2739 26.3643 67.6353 26.5815 67.78 26.7988V26.5091C67.78 26.4366 67.8527 26.4366 67.8527 26.4366H68.0695C68.1421 26.4366 68.1421 26.5091 68.1421 26.5091V27.5231C68.1421 27.5955 68.0695 27.5955 68.0695 27.5955H67.78C67.708 27.5955 67.6353 27.5231 67.6353 27.5231V27.3783C67.6353 27.161 67.3459 26.7264 66.6951 26.7264C66.333 26.7264 65.9715 26.9437 65.9715 27.3059C65.9715 28.175 68.3589 27.7404 68.3589 29.0441C68.3589 29.6236 67.9248 30.1306 66.9118 30.1306C66.261 30.2755 65.8995 29.8409 65.8268 29.696Z" fill="#333333"/>
<path d="M69.0815 28.2481C69.0815 27.0168 69.9497 26.2925 71.0347 26.2925C72.1197 26.2925 72.9879 27.0168 72.9879 28.2481C72.9879 29.4794 72.1197 30.2761 71.0347 30.2761C69.9497 30.2761 69.0815 29.4794 69.0815 28.2481ZM72.3371 28.2481C72.3371 27.3789 71.6856 26.7995 71.0347 26.7995C70.3839 26.7995 69.7324 27.3065 69.7324 28.2481C69.7324 29.1172 70.3112 29.6967 71.0347 29.6967C71.7583 29.6967 72.3371 29.1896 72.3371 28.2481Z" fill="#333333"/>
<path d="M73.5673 30.2028C73.4946 30.2028 73.4946 30.2028 73.4946 30.1304V29.7682C73.4946 29.6958 73.5673 29.6958 73.5673 29.6958H74.0014V25.1327H73.5673C73.4946 25.1327 73.4946 25.1327 73.4946 25.0603V24.6982C73.4946 24.6257 73.5673 24.6257 73.5673 24.6257H74.4355C74.5802 24.6257 74.6522 24.6982 74.6522 24.843V29.6958H75.0864C75.1584 29.6958 75.1584 29.6958 75.1584 29.7682V30.1304C75.1584 30.2028 75.0864 30.2028 75.0864 30.2028H73.5673Z" fill="#333333"/>
<path d="M79.0649 30.2037C78.8481 30.2037 78.7034 30.1312 78.7034 29.8415V29.5518C78.6314 29.7691 78.342 30.2037 77.4738 30.2037C76.6055 30.2037 76.0994 29.6242 76.0994 28.8275V26.7995H75.6653C75.5926 26.7995 75.5926 26.7995 75.5926 26.727V26.3649C75.5926 26.2925 75.6653 26.2925 75.6653 26.2925H76.3888C76.6055 26.2925 76.7502 26.3649 76.7502 26.6546V28.7551C76.7502 29.3345 77.0396 29.6966 77.6185 29.6966C78.414 29.6966 78.6314 29.0448 78.6314 29.0448V26.8719H78.1973C78.1246 26.8719 78.1246 26.8719 78.1246 26.7995V26.4374C78.1246 26.3649 78.1973 26.3649 78.1973 26.3649H79.1375C79.2096 26.3649 79.2096 26.3649 79.2096 26.4374V29.6966H79.6437C79.7164 29.6966 79.7164 29.6966 79.7164 29.7691V30.1312C79.7164 30.2037 79.6437 30.2037 79.6437 30.2037H79.0649Z" fill="#333333"/>
<path d="M82.8273 29.841C82.9 29.9134 82.8273 29.9134 82.8273 29.9858C82.7553 30.0583 82.4659 30.2756 82.0318 30.2756C81.2356 30.2756 80.8014 29.841 80.8014 28.9718V26.9438H80.3679C80.2953 26.9438 80.2232 26.8714 80.2232 26.8714V26.5817C80.2232 26.5092 80.2953 26.5092 80.3679 26.5092H80.8014V25.7125C80.8014 25.6401 80.8741 25.5676 80.9461 25.5676H81.3803C81.4529 25.5676 81.4529 25.6401 81.4529 25.7125V26.5092H82.4659C82.5379 26.5092 82.6106 26.5817 82.6106 26.5817V26.7989C82.6106 26.8713 82.5379 26.8714 82.4659 26.8714H81.4529V28.8994C81.4529 29.4064 81.6697 29.6961 82.1038 29.6961C82.3212 29.6961 82.4659 29.5513 82.5379 29.5513C82.6106 29.4788 82.6106 29.4788 82.6826 29.5513L82.8273 29.841Z" fill="#333333"/>
<path d="M83.4058 30.2033C83.3331 30.2033 83.3331 30.2033 83.3331 30.1309V29.7687C83.3331 29.6963 83.4058 29.6963 83.4058 29.6963H83.8399V26.8716H83.4058C83.3331 26.8716 83.3331 26.8716 83.3331 26.7991V26.4369C83.3331 26.3646 83.4058 26.3646 83.4058 26.3646H84.4187C84.4907 26.3646 84.4907 26.3646 84.4907 26.4369V29.6963H84.9249C84.9969 29.6963 84.9969 29.6963 84.9969 29.7687V30.1309C84.9969 30.2033 84.9249 30.2033 84.9249 30.2033H83.4058ZM84.1293 25.9299C83.9119 25.9299 83.6952 25.7127 83.6952 25.4954C83.6952 25.2781 83.9119 25.0608 84.1293 25.0608C84.346 25.0608 84.5634 25.2781 84.5634 25.4954C84.5634 25.7851 84.4187 25.9299 84.1293 25.9299Z" fill="#333333"/>
<path d="M85.504 28.2481C85.504 27.0168 86.3723 26.2925 87.4572 26.2925C88.5422 26.2925 89.4105 27.0168 89.4105 28.2481C89.4105 29.4794 88.5422 30.2761 87.4572 30.2761C86.3723 30.2761 85.504 29.4794 85.504 28.2481ZM88.7596 28.2481C88.7596 27.3789 88.1081 26.7995 87.4572 26.7995C86.8058 26.7995 86.1549 27.3065 86.1549 28.2481C86.1549 29.1172 86.7337 29.6967 87.4572 29.6967C88.1808 29.6967 88.7596 29.1896 88.7596 28.2481Z" fill="#333333"/>
<path d="M93.4616 30.2031C93.2449 30.2031 93.1002 30.1306 93.1002 29.8409V27.7404C93.1002 27.161 92.8107 26.7988 92.2319 26.7988C91.4363 26.7988 91.219 27.4507 91.219 27.4507V29.6236H91.6531C91.7251 29.6236 91.7251 29.6236 91.7251 29.6961V30.0582C91.7251 30.1306 91.6531 30.1306 91.6531 30.1306H90.134C90.0613 30.1306 90.0613 30.1306 90.0613 30.0582V29.6961C90.0613 29.6236 90.134 29.6236 90.134 29.6236H90.5681V26.7988H90.134C90.0613 26.7988 90.0613 26.7988 90.0613 26.7264V26.3643C90.0613 26.2918 90.134 26.2918 90.134 26.2918H91.0743C91.1469 26.2918 91.1469 26.2918 91.1469 26.3643V26.8713C91.219 26.7264 91.5804 26.2194 92.3766 26.2194C93.2449 26.2194 93.679 26.7264 93.751 27.5956V29.6961H94.1851C94.2572 29.6961 94.2572 29.6961 94.2572 29.7685V30.1306C94.2572 30.2031 94.1851 30.2031 94.1851 30.2031H93.4616Z" fill="#333333"/>
<path d="M95.1981 29.696C95.1981 29.696 95.1981 30.0581 95.1981 30.1306C95.1981 30.203 95.1254 30.203 95.0534 30.203H94.764C94.692 30.203 94.692 30.1306 94.692 30.1306V28.9717C94.692 28.8993 94.764 28.8993 94.764 28.8993H95.0534C95.1254 28.8993 95.1981 28.9717 95.1981 28.9717V29.1166C95.1981 29.1166 95.4149 29.7685 96.2831 29.7685C96.8619 29.7685 97.1513 29.5511 97.1513 29.189C97.1513 28.3923 94.764 28.8269 94.764 27.4507C94.764 26.7264 95.3428 26.3643 96.0663 26.3643C96.6452 26.3643 97.0066 26.5815 97.1513 26.7988V26.5091C97.1513 26.4366 97.224 26.4366 97.224 26.4366H97.4408C97.5128 26.4366 97.5134 26.5091 97.5134 26.5091V27.5231C97.5134 27.5955 97.4408 27.5955 97.4408 27.5955H97.1513C97.0793 27.5955 97.0066 27.5231 97.0066 27.5231V27.3783C97.0066 27.161 96.7172 26.7264 96.0663 26.7264C95.7043 26.7264 95.3428 26.9437 95.3428 27.3059C95.3428 28.175 97.7302 27.7404 97.7302 29.0441C97.7302 29.6236 97.296 30.1306 96.2831 30.1306C95.6322 30.2755 95.2701 29.8409 95.1981 29.696Z" fill="#333333"/>
<path d="M98.6711 31.0004C98.5984 31.0004 98.5264 30.9279 98.5264 30.9279V30.4933C98.5264 30.4209 98.5984 30.4209 98.6711 30.4209H102.215C102.288 30.4209 102.288 30.4933 102.288 30.4933V30.9279C102.288 31.0003 102.215 31.0004 102.215 31.0004H98.6711Z" fill="#333333"/>
</g>
<defs>
<clipPath id="clip0_1_14">
<rect width="103" height="31" fill="white" transform="translate(0.5)"/>
</clipPath>
</defs>
</svg>
