<svg width="112" height="82" viewBox="0 0 112 82" fill="none" xmlns="http://www.w3.org/2000/svg">
<path d="M42.7636 1.29095C42.7636 1.72368 42.5854 1.80004 41.7454 1.80004C40.9054 1.80004 40.7272 1.87641 40.7272 2.30913C40.7272 2.74186 40.5491 2.81822 39.7091 2.81822C38.8691 2.81822 38.6909 2.89459 38.6909 3.32731C38.6909 3.65822 38.5127 3.83641 38.1818 3.83641C37.8509 3.83641 37.6727 4.01459 37.6727 4.3455C37.6727 4.67641 37.4945 4.85459 37.1636 4.85459C36.8327 4.85459 36.6545 5.03277 36.6545 5.36368C36.6545 5.69459 36.4763 5.87277 36.1454 5.87277C35.7127 5.87277 35.6363 6.05095 35.6363 6.89095C35.6363 7.73095 35.56 7.90913 35.1272 7.90913C34.6691 7.90913 34.6182 8.08732 34.6182 9.43641C34.6182 10.7855 34.5672 10.9637 34.1091 10.9637C33.6 10.9637 33.6 11.1419 33.6 25.7274C33.6 40.3127 33.6 40.4909 34.1091 40.4909C34.5672 40.4909 34.6182 40.6691 34.6182 42.0182C34.6182 43.3673 34.6691 43.5456 35.1272 43.5456C35.56 43.5456 35.6363 43.7236 35.6363 44.5636C35.6363 45.4036 35.7127 45.5818 36.1454 45.5818C36.4763 45.5818 36.6545 45.76 36.6545 46.091C36.6545 46.4219 36.8327 46.6 37.1636 46.6C37.4945 46.6 37.6727 46.7782 37.6727 47.1091C37.6727 47.44 37.8509 47.6182 38.1818 47.6182C38.5127 47.6182 38.6909 47.7964 38.6909 48.1273C38.6909 48.4582 38.8691 48.6364 39.2 48.6364C39.5309 48.6364 39.7091 48.8145 39.7091 49.1455C39.7091 49.5782 39.8872 49.6545 40.7272 49.6545C41.5672 49.6545 41.7454 49.731 41.7454 50.1637C41.7454 50.6728 41.9236 50.6727 57.0182 50.6727C72.1127 50.6727 72.2909 50.6728 72.2909 50.1637C72.2909 49.7056 72.4691 49.6545 73.8182 49.6545C75.1673 49.6545 75.3454 49.6036 75.3454 49.1455C75.3454 48.8145 75.5236 48.6364 75.8545 48.6364C76.1854 48.6364 76.3636 48.4582 76.3636 48.1273C76.3636 47.6945 76.5418 47.6182 77.3818 47.6182C78.2218 47.6182 78.4 47.5418 78.4 47.1091C78.4 46.7782 78.5782 46.6 78.9091 46.6C79.24 46.6 79.4182 46.4219 79.4182 46.091C79.4182 45.76 79.5963 45.5818 79.9273 45.5818C80.2582 45.5818 80.4363 45.4037 80.4363 45.0728C80.4363 44.7419 80.6145 44.5636 80.9454 44.5636C81.3782 44.5636 81.4545 44.3856 81.4545 43.5456C81.4545 42.7056 81.5309 42.5274 81.9636 42.5274C82.3963 42.5274 82.4727 42.3492 82.4727 41.5092C82.4727 40.6692 82.5491 40.4909 82.9818 40.4909C83.4145 40.4909 83.4909 40.3127 83.4909 39.4727C83.4909 38.6327 83.5673 38.4545 84 38.4545C84.3309 38.4545 84.5091 38.2764 84.5091 37.9455C84.5091 37.4364 84.3309 37.4365 67.2 37.4365C50.0691 37.4365 49.8909 37.4364 49.8909 36.9273C49.8909 36.4945 49.7127 36.4183 48.8727 36.4183H47.8545V34.8909V33.3637H49.8909C51.7491 33.3637 51.9273 33.3127 51.9273 32.8545C51.9273 32.3455 52.1054 32.3456 68.2182 32.3456H84.5091V25.7274V19.1091H67.2C50.0691 19.1091 49.8909 19.1091 49.8909 18.6C49.8909 18.1673 49.7127 18.091 48.8727 18.091H47.8545V16.5637V15.0365H49.8909C51.7491 15.0365 51.9273 14.9855 51.9273 14.5274C51.9273 14.0183 52.1054 14.0183 68.2182 14.0183C84.3309 14.0183 84.5091 14.0183 84.5091 13.5092C84.5091 13.1783 84.3309 13.0001 84 13.0001C83.5673 13.0001 83.4909 12.8219 83.4909 11.9819C83.4909 11.1419 83.4145 10.9637 82.9818 10.9637C82.5491 10.9637 82.4727 10.7855 82.4727 9.9455C82.4727 9.1055 82.3963 8.92732 81.9636 8.92732C81.6327 8.92732 81.4545 8.74913 81.4545 8.41822C81.4545 8.08732 81.2763 7.90913 80.9454 7.90913C80.5127 7.90913 80.4363 7.73095 80.4363 6.89095C80.4363 6.05095 80.36 5.87277 79.9273 5.87277C79.5963 5.87277 79.4182 5.69459 79.4182 5.36368C79.4182 4.93095 79.24 4.85459 78.4 4.85459C77.56 4.85459 77.3818 4.77822 77.3818 4.3455C77.3818 4.01459 77.2036 3.83641 76.8727 3.83641C76.5418 3.83641 76.3636 3.65822 76.3636 3.32731C76.3636 2.89459 76.1854 2.81822 75.3454 2.81822C74.5054 2.81822 74.3273 2.74186 74.3273 2.30913C74.3273 1.85095 74.1491 1.80004 72.8 1.80004C71.4509 1.80004 71.2727 1.74913 71.2727 1.29095C71.2727 0.78186 71.0945 0.78186 57.0182 0.78186C42.9418 0.78186 42.7636 0.78186 42.7636 1.29095Z" fill="#F12525"/>
<path d="M100.8 55.7637V59.8364H99.7818C98.9418 59.8364 98.7637 59.9127 98.7637 60.3455C98.7637 60.6764 98.5855 60.8546 98.2546 60.8546C97.7964 60.8546 97.7455 61.0327 97.7455 62.3818C97.7455 63.7309 97.7964 63.9091 98.2546 63.9091C98.5855 63.9091 98.7637 64.0873 98.7637 64.4182C98.7637 64.8509 98.9418 64.9273 99.7818 64.9273H100.8V70.5273C100.8 75.9491 100.825 76.1273 101.309 76.1273C101.742 76.1273 101.818 76.3055 101.818 77.1455C101.818 77.9855 101.895 78.1637 102.327 78.1637C102.658 78.1637 102.836 78.3418 102.836 78.6727C102.836 79.1055 103.015 79.1818 103.855 79.1818C104.695 79.1818 104.873 79.2582 104.873 79.6909C104.873 80.1237 105.051 80.2 105.891 80.2C106.731 80.2 106.909 80.2764 106.909 80.7091C106.909 81.1673 107.087 81.2182 108.945 81.2182C110.804 81.2182 110.982 81.1673 110.982 80.7091C110.982 80.3782 111.16 80.2 111.491 80.2C111.949 80.2 112 80.0218 112 78.6727C112 77.3237 111.949 77.1455 111.491 77.1455C111.16 77.1455 110.982 76.9673 110.982 76.6364C110.982 76.1782 110.804 76.1273 108.945 76.1273C107.087 76.1273 106.909 76.0764 106.909 75.6182C106.909 75.2873 106.731 75.1091 106.4 75.1091C106.069 75.1091 105.891 74.9309 105.891 74.6C105.891 74.2691 105.713 74.0909 105.382 74.0909C104.898 74.0909 104.873 73.9127 104.873 69.5091V64.9273H106.909C108.767 64.9273 108.945 64.8764 108.945 64.4182C108.945 64.0873 109.124 63.9091 109.455 63.9091C109.785 63.9091 109.964 63.7309 109.964 63.4C109.964 63.0691 110.142 62.8909 110.473 62.8909C110.905 62.8909 110.982 62.7127 110.982 61.8727C110.982 61.0327 110.905 60.8546 110.473 60.8546C110.142 60.8546 109.964 60.6764 109.964 60.3455C109.964 59.8618 109.785 59.8364 107.418 59.8364H104.873V56.2727C104.873 52.8873 104.847 52.7091 104.364 52.7091C104.033 52.7091 103.855 52.5309 103.855 52.2C103.855 51.7418 103.676 51.6909 102.327 51.6909H100.8V55.7637Z" fill="#F12525"/>
<path d="M7.12727 60.3455C7.12727 60.7782 6.94909 60.8546 6.10909 60.8546C5.26909 60.8546 5.09091 60.9309 5.09091 61.3637C5.09091 61.7964 4.91273 61.8727 4.07273 61.8727C3.23273 61.8727 3.05455 61.9491 3.05455 62.3818C3.05455 62.7127 2.87636 62.8909 2.54545 62.8909C2.11273 62.8909 2.03636 63.0691 2.03636 63.9091C2.03636 64.7491 1.96 64.9273 1.52727 64.9273C1.19636 64.9273 1.01818 65.1055 1.01818 65.4364C1.01818 65.7673 0.84 65.9455 0.509091 65.9455C0.0254545 65.9455 0 66.1237 0 70.5273C0 74.9309 0.0254545 75.1091 0.509091 75.1091C0.941818 75.1091 1.01818 75.2873 1.01818 76.1273C1.01818 76.9673 1.09455 77.1455 1.52727 77.1455C1.85818 77.1455 2.03636 77.3237 2.03636 77.6546C2.03636 77.9855 2.21455 78.1637 2.54545 78.1637C2.87636 78.1637 3.05455 78.3418 3.05455 78.6727C3.05455 79.1055 3.23273 79.1818 4.07273 79.1818C4.91273 79.1818 5.09091 79.2582 5.09091 79.6909C5.09091 80.1237 5.26909 80.2 6.10909 80.2C6.94909 80.2 7.12727 80.2764 7.12727 80.7091C7.12727 81.1927 7.30546 81.2182 10.1818 81.2182C13.0582 81.2182 13.2364 81.1927 13.2364 80.7091C13.2364 80.2764 13.4145 80.2 14.2545 80.2C15.0945 80.2 15.2727 80.1237 15.2727 79.6909C15.2727 79.36 15.4509 79.1818 15.7818 79.1818C16.1127 79.1818 16.2909 79.0037 16.2909 78.6727C16.2909 78.3418 16.4691 78.1637 16.8 78.1637C17.1309 78.1637 17.3091 77.9855 17.3091 77.6546C17.3091 77.3237 17.4873 77.1455 17.8182 77.1455C18.1491 77.1455 18.3273 76.9673 18.3273 76.6364C18.3273 76.3055 18.5055 76.1273 18.8364 76.1273C19.2691 76.1273 19.3455 75.9491 19.3455 75.1091C19.3455 74.2691 19.2691 74.0909 18.8364 74.0909C18.5055 74.0909 18.3273 73.9127 18.3273 73.5818C18.3273 73.1237 18.1491 73.0727 16.8 73.0727C15.4509 73.0727 15.2727 73.1237 15.2727 73.5818C15.2727 73.9127 15.0945 74.0909 14.7636 74.0909C14.4327 74.0909 14.2545 74.2691 14.2545 74.6C14.2545 74.9309 14.0764 75.1091 13.7455 75.1091C13.4145 75.1091 13.2364 75.2873 13.2364 75.6182C13.2364 76.1018 13.0582 76.1273 10.1818 76.1273H7.12727V75.1091V74.0909H8.14546C8.98546 74.0909 9.16364 74.0146 9.16364 73.5818C9.16364 73.1491 9.34182 73.0727 10.1818 73.0727C11.0218 73.0727 11.2 72.9964 11.2 72.5637C11.2 72.1055 11.3782 72.0546 12.7273 72.0546C14.0764 72.0546 14.2545 72.0037 14.2545 71.5455C14.2545 71.1127 14.4327 71.0364 15.2727 71.0364C16.1127 71.0364 16.2909 70.96 16.2909 70.5273C16.2909 70.0946 16.4691 70.0182 17.3091 70.0182C18.1491 70.0182 18.3273 69.9418 18.3273 69.5091C18.3273 69.1782 18.5055 69 18.8364 69C19.2945 69 19.3455 68.8218 19.3455 66.9637C19.3455 65.1055 19.2945 64.9273 18.8364 64.9273C18.5055 64.9273 18.3273 64.7491 18.3273 64.4182C18.3273 64.0873 18.1491 63.9091 17.8182 63.9091C17.4873 63.9091 17.3091 63.7309 17.3091 63.4C17.3091 63.0691 17.1309 62.8909 16.8 62.8909C16.4691 62.8909 16.2909 62.7127 16.2909 62.3818C16.2909 62.0509 16.1127 61.8727 15.7818 61.8727C15.4509 61.8727 15.2727 61.6946 15.2727 61.3637C15.2727 60.9309 15.0945 60.8546 14.2545 60.8546C13.4145 60.8546 13.2364 60.7782 13.2364 60.3455C13.2364 59.8618 13.0582 59.8364 10.1818 59.8364C7.30546 59.8364 7.12727 59.8618 7.12727 60.3455ZM13.2364 65.9455V66.9637H12.2182C11.3782 66.9637 11.2 67.04 11.2 67.4727C11.2 67.9055 11.0218 67.9818 10.1818 67.9818C9.34182 67.9818 9.16364 68.0582 9.16364 68.4909C9.16364 68.9491 8.98546 69 7.63636 69C6.28727 69 6.10909 69.0509 6.10909 69.5091C6.10909 69.9418 5.93091 70.0182 5.09091 70.0182C4.25091 70.0182 4.07273 69.9418 4.07273 69.5091C4.07273 69.1782 4.25091 69 4.58182 69C5.01455 69 5.09091 68.8218 5.09091 67.9818C5.09091 67.1418 5.16727 66.9637 5.6 66.9637C5.93091 66.9637 6.10909 66.7855 6.10909 66.4546C6.10909 66.1237 6.28727 65.9455 6.61818 65.9455C6.94909 65.9455 7.12727 65.7673 7.12727 65.4364C7.12727 64.9527 7.30546 64.9273 10.1818 64.9273H13.2364V65.9455Z" fill="#F12525"/>
<path d="M25.4545 60.8546C25.4545 61.6946 25.3782 61.8727 24.9454 61.8727C24.4363 61.8727 24.4363 62.0509 24.4363 70.5273C24.4363 79.0037 24.4363 79.1818 24.9454 79.1818C25.3782 79.1818 25.4545 79.36 25.4545 80.2V81.2182H26.9818C28.3309 81.2182 28.5091 81.1673 28.5091 80.7091C28.5091 80.3782 28.6873 80.2 29.0182 80.2C29.5018 80.2 29.5273 80.0218 29.5273 74.0909C29.5273 68.16 29.5527 67.9818 30.0363 67.9818C30.3673 67.9818 30.5454 67.8037 30.5454 67.4727C30.5454 67.1418 30.7236 66.9637 31.0545 66.9637C31.3854 66.9637 31.5636 66.7855 31.5636 66.4546C31.5636 66.1237 31.7418 65.9455 32.0727 65.9455C32.4036 65.9455 32.5818 65.7673 32.5818 65.4364C32.5818 64.9527 32.76 64.9273 35.1273 64.9273C37.4945 64.9273 37.6727 64.9527 37.6727 65.4364C37.6727 65.7673 37.8509 65.9455 38.1818 65.9455C38.5127 65.9455 38.6909 66.1237 38.6909 66.4546C38.6909 66.7855 38.8691 66.9637 39.2 66.9637C39.5309 66.9637 39.7091 67.1418 39.7091 67.4727C39.7091 67.8037 39.8873 67.9818 40.2182 67.9818C40.7018 67.9818 40.7273 68.16 40.7273 74.0909C40.7273 80.0218 40.7527 80.2 41.2363 80.2C41.5673 80.2 41.7454 80.3782 41.7454 80.7091C41.7454 81.1673 41.9236 81.2182 43.2727 81.2182H44.8V80.2C44.8 79.36 44.8763 79.1818 45.3091 79.1818C45.7927 79.1818 45.8182 79.0037 45.8182 74.6C45.8182 70.1964 45.7927 70.0182 45.3091 70.0182C44.8509 70.0182 44.8 69.84 44.8 67.9818C44.8 66.1237 44.7491 65.9455 44.2909 65.9455C43.8582 65.9455 43.7818 65.7673 43.7818 64.9273C43.7818 64.0873 43.7054 63.9091 43.2727 63.9091C42.9418 63.9091 42.7636 63.7309 42.7636 63.4C42.7636 63.0691 42.5854 62.8909 42.2545 62.8909C41.9236 62.8909 41.7454 62.7127 41.7454 62.3818C41.7454 62.0509 41.5673 61.8727 41.2363 61.8727C40.9054 61.8727 40.7273 61.6946 40.7273 61.3637C40.7273 60.9055 40.5491 60.8546 39.2 60.8546C37.8509 60.8546 37.6727 60.8037 37.6727 60.3455C37.6727 59.8618 37.4945 59.8364 35.1273 59.8364C32.76 59.8364 32.5818 59.8618 32.5818 60.3455C32.5818 60.8037 32.4036 60.8546 30.5454 60.8546C28.6873 60.8546 28.5091 60.8037 28.5091 60.3455C28.5091 59.8873 28.3309 59.8364 26.9818 59.8364H25.4545V60.8546Z" fill="#F12525"/>
<path d="M57.0182 60.3455C57.0182 60.7782 56.84 60.8546 56 60.8546C55.16 60.8546 54.9818 60.9309 54.9818 61.3637C54.9818 61.6946 54.8037 61.8727 54.4727 61.8727C54.1418 61.8727 53.9637 62.0509 53.9637 62.3818C53.9637 62.7127 53.7855 62.8909 53.4546 62.8909C53.1237 62.8909 52.9455 63.0691 52.9455 63.4C52.9455 63.7309 52.7673 63.9091 52.4364 63.9091C52.1055 63.9091 51.9273 64.0873 51.9273 64.4182C51.9273 64.7491 51.7491 64.9273 51.4182 64.9273C50.9855 64.9273 50.9091 65.1055 50.9091 65.9455C50.9091 66.7855 50.8327 66.9637 50.4 66.9637C49.9164 66.9637 49.8909 67.1418 49.8909 70.5273C49.8909 73.9127 49.9164 74.0909 50.4 74.0909C50.8327 74.0909 50.9091 74.2691 50.9091 75.1091C50.9091 75.9491 50.9855 76.1273 51.4182 76.1273C51.8509 76.1273 51.9273 76.3055 51.9273 77.1455V78.1637H52.9455C53.7855 78.1637 53.9637 78.24 53.9637 78.6727C53.9637 79.0037 54.1418 79.1818 54.4727 79.1818C54.8037 79.1818 54.9818 79.36 54.9818 79.6909C54.9818 80.1237 55.16 80.2 56 80.2C56.84 80.2 57.0182 80.2764 57.0182 80.7091C57.0182 81.1927 57.1964 81.2182 60.0727 81.2182C62.9491 81.2182 63.1273 81.1927 63.1273 80.7091C63.1273 80.2509 63.3055 80.2 64.6546 80.2C66.0037 80.2 66.1818 80.2509 66.1818 80.7091C66.1818 81.1673 66.36 81.2182 67.7091 81.2182C69.0582 81.2182 69.2364 81.1673 69.2364 80.7091C69.2364 80.3782 69.4146 80.2 69.7455 80.2C70.2291 80.2 70.2546 80.0218 70.2546 73.5818C70.2546 67.1418 70.2291 66.9637 69.7455 66.9637C69.3128 66.9637 69.2364 66.7855 69.2364 65.9455C69.2364 65.1055 69.16 64.9273 68.7273 64.9273C68.3964 64.9273 68.2182 64.7491 68.2182 64.4182C68.2182 64.0873 68.04 63.9091 67.7091 63.9091C67.2764 63.9091 67.2 63.7309 67.2 62.8909V61.8727H66.1818C65.3418 61.8727 65.1637 61.7964 65.1637 61.3637C65.1637 60.9309 64.9855 60.8546 64.1455 60.8546C63.3055 60.8546 63.1273 60.7782 63.1273 60.3455C63.1273 59.8618 62.9491 59.8364 60.0727 59.8364C57.1964 59.8364 57.0182 59.8618 57.0182 60.3455ZM63.1273 65.4364C63.1273 65.7673 63.3055 65.9455 63.6364 65.9455C63.9673 65.9455 64.1455 66.1237 64.1455 66.4546C64.1455 66.7855 64.3237 66.9637 64.6546 66.9637C65.0873 66.9637 65.1637 67.1418 65.1637 67.9818C65.1637 68.8218 65.24 69 65.6728 69C66.1309 69 66.1818 69.1782 66.1818 70.5273C66.1818 71.8764 66.1309 72.0546 65.6728 72.0546C65.24 72.0546 65.1637 72.2327 65.1637 73.0727C65.1637 73.9127 65.0873 74.0909 64.6546 74.0909C64.3237 74.0909 64.1455 74.2691 64.1455 74.6C64.1455 74.9309 63.9673 75.1091 63.6364 75.1091C63.3055 75.1091 63.1273 75.2873 63.1273 75.6182C63.1273 76.1018 62.9491 76.1273 60.0727 76.1273C57.1964 76.1273 57.0182 76.1018 57.0182 75.6182C57.0182 75.2873 56.84 75.1091 56.5091 75.1091C56.1782 75.1091 56 74.9309 56 74.6C56 74.2691 55.8218 74.0909 55.4909 74.0909C55.0327 74.0909 54.9818 73.9127 54.9818 72.5637C54.9818 71.2146 54.9309 71.0364 54.4727 71.0364C54.1418 71.0364 53.9637 70.8582 53.9637 70.5273C53.9637 70.1964 54.1418 70.0182 54.4727 70.0182C54.9309 70.0182 54.9818 69.84 54.9818 68.4909C54.9818 67.1418 55.0327 66.9637 55.4909 66.9637C55.8218 66.9637 56 66.7855 56 66.4546C56 66.1237 56.1782 65.9455 56.5091 65.9455C56.84 65.9455 57.0182 65.7673 57.0182 65.4364C57.0182 64.9527 57.1964 64.9273 60.0727 64.9273C62.9491 64.9273 63.1273 64.9527 63.1273 65.4364Z" fill="#F12525"/>
<path d="M82.4727 60.3455C82.4727 60.7782 82.2946 60.8546 81.4546 60.8546C80.6146 60.8546 80.4364 60.9309 80.4364 61.3637C80.4364 61.7964 80.2582 61.8727 79.4182 61.8727C78.5782 61.8727 78.4 61.9491 78.4 62.3818C78.4 62.7127 78.2218 62.8909 77.8909 62.8909C77.56 62.8909 77.3818 63.0691 77.3818 63.4C77.3818 63.7309 77.2036 63.9091 76.8727 63.9091C76.44 63.9091 76.3636 64.0873 76.3636 64.9273C76.3636 65.7673 76.2873 65.9455 75.8545 65.9455C75.3709 65.9455 75.3455 66.1237 75.3455 70.5273C75.3455 74.9309 75.3709 75.1091 75.8545 75.1091C76.2873 75.1091 76.3636 75.2873 76.3636 76.1273C76.3636 76.9673 76.44 77.1455 76.8727 77.1455C77.2036 77.1455 77.3818 77.3237 77.3818 77.6546C77.3818 77.9855 77.56 78.1637 77.8909 78.1637C78.2218 78.1637 78.4 78.3418 78.4 78.6727C78.4 79.1055 78.5782 79.1818 79.4182 79.1818C80.2582 79.1818 80.4364 79.2582 80.4364 79.6909C80.4364 80.1237 80.6146 80.2 81.4546 80.2C82.2946 80.2 82.4727 80.2764 82.4727 80.7091C82.4727 81.1927 82.6509 81.2182 85.5273 81.2182C88.4036 81.2182 88.5818 81.1927 88.5818 80.7091C88.5818 80.2764 88.76 80.2 89.6 80.2C90.44 80.2 90.6182 80.1237 90.6182 79.6909C90.6182 79.36 90.7964 79.1818 91.1273 79.1818C91.4582 79.1818 91.6364 79.0037 91.6364 78.6727C91.6364 78.3418 91.8146 78.1637 92.1455 78.1637C92.4764 78.1637 92.6546 77.9855 92.6546 77.6546C92.6546 77.3237 92.8327 77.1455 93.1636 77.1455C93.6218 77.1455 93.6727 76.9673 93.6727 75.6182C93.6727 74.2691 93.6218 74.0909 93.1636 74.0909C92.8327 74.0909 92.6546 73.9127 92.6546 73.5818C92.6546 73.1491 92.4764 73.0727 91.6364 73.0727C90.7964 73.0727 90.6182 73.1491 90.6182 73.5818C90.6182 73.9127 90.44 74.0909 90.1091 74.0909C89.7782 74.0909 89.6 74.2691 89.6 74.6C89.6 74.9309 89.4218 75.1091 89.0909 75.1091C88.76 75.1091 88.5818 75.2873 88.5818 75.6182C88.5818 76.1018 88.4036 76.1273 85.5273 76.1273C82.6509 76.1273 82.4727 76.1018 82.4727 75.6182C82.4727 75.2873 82.2946 75.1091 81.9636 75.1091C81.6327 75.1091 81.4546 74.9309 81.4546 74.6C81.4546 74.2691 81.2764 74.0909 80.9455 74.0909C80.5127 74.0909 80.4364 73.9127 80.4364 73.0727C80.4364 72.2327 80.36 72.0546 79.9273 72.0546C79.4691 72.0546 79.4182 71.8764 79.4182 70.5273C79.4182 69.1782 79.4691 69 79.9273 69C80.36 69 80.4364 68.8218 80.4364 67.9818C80.4364 67.1418 80.5127 66.9637 80.9455 66.9637C81.2764 66.9637 81.4546 66.7855 81.4546 66.4546C81.4546 66.1237 81.6327 65.9455 81.9636 65.9455C82.2946 65.9455 82.4727 65.7673 82.4727 65.4364C82.4727 64.9527 82.6509 64.9273 85.0182 64.9273C87.3855 64.9273 87.5636 64.9527 87.5636 65.4364C87.5636 65.8691 87.7418 65.9455 88.5818 65.9455C89.4218 65.9455 89.6 66.0218 89.6 66.4546C89.6 66.7855 89.7782 66.9637 90.1091 66.9637C90.44 66.9637 90.6182 67.1418 90.6182 67.4727C90.6182 67.9055 90.7964 67.9818 91.6364 67.9818C92.4764 67.9818 92.6546 67.9055 92.6546 67.4727C92.6546 67.1418 92.8327 66.9637 93.1636 66.9637C93.6218 66.9637 93.6727 66.7855 93.6727 65.4364C93.6727 64.0873 93.6218 63.9091 93.1636 63.9091C92.8327 63.9091 92.6546 63.7309 92.6546 63.4C92.6546 63.0691 92.4764 62.8909 92.1455 62.8909C91.8146 62.8909 91.6364 62.7127 91.6364 62.3818C91.6364 62.0509 91.4582 61.8727 91.1273 61.8727C90.7964 61.8727 90.6182 61.6946 90.6182 61.3637C90.6182 60.9309 90.44 60.8546 89.6 60.8546C88.76 60.8546 88.5818 60.7782 88.5818 60.3455C88.5818 59.8618 88.4036 59.8364 85.5273 59.8364C82.6509 59.8364 82.4727 59.8618 82.4727 60.3455Z" fill="#F12525"/>
</svg>
