<svg width="121" height="33" viewBox="0 0 121 33" fill="none" xmlns="http://www.w3.org/2000/svg">
<path d="M0.592 26V0.295998H18.34V2.384H3.04V11.672H17.368V13.76H3.04V23.912H18.52V26H0.592ZM19.3758 26L26.5758 16.352L19.9158 7.424H22.7598L28.0518 14.48L33.2358 7.424H36.0798L29.3838 16.316L36.6198 26H33.7398L27.9078 18.188L22.1838 26H19.3758ZM53.6999 16.712C53.6999 14.552 53.2319 12.752 52.2959 11.312C51.1919 9.632 49.6319 8.792 47.6159 8.792C43.2719 8.792 41.0999 11.432 41.0999 16.712C41.0999 18.896 41.5799 20.696 42.5399 22.112C43.6919 23.792 45.3839 24.632 47.6159 24.632C49.6319 24.632 51.1919 23.792 52.2959 22.112C53.2319 20.672 53.6999 18.872 53.6999 16.712ZM38.8319 32.876V7.424H40.9199V10.952H40.9919C41.5199 9.704 42.3719 8.72 43.5479 8C44.7479 7.256 46.1039 6.884 47.6159 6.884C50.3039 6.884 52.4039 7.868 53.9159 9.836C55.2839 11.612 55.9679 13.904 55.9679 16.712C55.9679 19.52 55.2839 21.812 53.9159 23.588C52.4039 25.556 50.3039 26.54 47.6159 26.54C46.1759 26.54 44.8799 26.192 43.7279 25.496C42.5039 24.776 41.6519 23.768 41.1719 22.472H41.0999V32.876H38.8319ZM59.5038 26V7.424H61.5918V11.78H61.6638C62.2398 10.268 63.1398 9.104 64.3638 8.288C65.5878 7.472 67.0278 7.1 68.6838 7.172V9.44C66.6678 9.344 65.0118 9.944 63.7158 11.24C62.4198 12.512 61.7718 14.132 61.7718 16.1V26H59.5038ZM86.4832 17.324H72.1912C72.2152 19.244 72.6952 20.876 73.6312 22.22C74.7592 23.828 76.3192 24.632 78.3112 24.632C81.3832 24.632 83.3272 23.048 84.1432 19.88H86.4112C85.3792 24.32 82.6792 26.54 78.3112 26.54C75.5272 26.54 73.3912 25.568 71.9032 23.624C70.5832 21.872 69.9232 19.568 69.9232 16.712C69.9232 14 70.5832 11.744 71.9032 9.944C73.4152 7.904 75.5512 6.884 78.3112 6.884C81.1192 6.884 83.2552 7.976 84.7192 10.16C85.9912 12.056 86.5792 14.444 86.4832 17.324ZM72.1912 15.416H84.2152C84.1672 13.592 83.6272 12.056 82.5952 10.808C81.4912 9.464 80.0632 8.792 78.3112 8.792C76.5592 8.792 75.1192 9.476 73.9912 10.844C72.9832 12.044 72.3832 13.568 72.1912 15.416ZM102.919 12.86H100.651C100.603 11.516 100.099 10.484 99.1392 9.764C98.2752 9.116 97.1592 8.792 95.7912 8.792C94.6152 8.792 93.6312 9.02 92.8392 9.476C91.8792 10.052 91.3992 10.892 91.3992 11.996C91.3992 13.508 92.6832 14.552 95.2512 15.128L98.2752 15.812C101.803 16.604 103.567 18.32 103.567 20.96C103.567 22.808 102.763 24.236 101.155 25.244C99.7632 26.108 98.0832 26.54 96.1152 26.54C91.3632 26.54 88.8192 24.356 88.4832 19.988H90.7512C90.8472 21.476 91.3872 22.628 92.3712 23.444C93.3792 24.236 94.6632 24.632 96.2232 24.632C97.4952 24.632 98.6112 24.368 99.5712 23.84C100.723 23.192 101.299 22.28 101.299 21.104C101.299 19.448 99.9432 18.32 97.2312 17.72L94.3152 17.072C92.6352 16.688 91.3992 16.172 90.6072 15.524C89.6232 14.708 89.1312 13.568 89.1312 12.104C89.1312 10.352 89.8872 9.008 91.3992 8.072C92.6712 7.28 94.2432 6.884 96.1152 6.884C98.0592 6.884 99.6432 7.376 100.867 8.36C102.163 9.416 102.847 10.916 102.919 12.86ZM120.251 12.86H117.983C117.935 11.516 117.431 10.484 116.471 9.764C115.607 9.116 114.491 8.792 113.123 8.792C111.947 8.792 110.963 9.02 110.171 9.476C109.211 10.052 108.731 10.892 108.731 11.996C108.731 13.508 110.015 14.552 112.583 15.128L115.607 15.812C119.135 16.604 120.899 18.32 120.899 20.96C120.899 22.808 120.095 24.236 118.487 25.244C117.095 26.108 115.415 26.54 113.447 26.54C108.695 26.54 106.151 24.356 105.815 19.988H108.083C108.179 21.476 108.719 22.628 109.703 23.444C110.711 24.236 111.995 24.632 113.555 24.632C114.827 24.632 115.943 24.368 116.903 23.84C118.055 23.192 118.631 22.28 118.631 21.104C118.631 19.448 117.275 18.32 114.563 17.72L111.647 17.072C109.967 16.688 108.731 16.172 107.939 15.524C106.955 14.708 106.463 13.568 106.463 12.104C106.463 10.352 107.219 9.008 108.731 8.072C110.003 7.28 111.575 6.884 113.447 6.884C115.391 6.884 116.975 7.376 118.199 8.36C119.495 9.416 120.179 10.916 120.251 12.86Z" fill="black"/>
</svg>
