<svg width="94" height="96" viewBox="0 0 94 96" fill="none" xmlns="http://www.w3.org/2000/svg">
<path d="M93.9546 21.7184C93.9397 21.6748 93.922 21.6322 93.9016 21.5909C93.8746 21.5102 93.8411 21.4319 93.8015 21.3565C93.7708 21.3097 93.7367 21.2652 93.6994 21.2234C93.6578 21.1619 93.6124 21.103 93.5633 21.0471C93.5198 21.0059 93.465 20.9721 93.4178 20.9346C93.3639 20.8886 93.307 20.846 93.2477 20.8071L75.0529 10.4159C74.823 10.2843 74.5623 10.215 74.2968 10.215C74.0314 10.215 73.7706 10.2843 73.5408 10.4159L55.3422 20.8128C55.2838 20.852 55.2283 20.8953 55.1759 20.9421C55.1244 20.9765 55.0751 21.0141 55.0285 21.0546C54.979 21.1095 54.9335 21.1677 54.8924 21.229C54.8602 21.274 54.8187 21.3134 54.7903 21.3621C54.7521 21.4379 54.7192 21.5162 54.692 21.5965C54.6769 21.6396 54.6523 21.679 54.6391 21.724C54.6044 21.8512 54.5866 21.9823 54.5862 22.114V41.8464L39.4232 50.507V11.8953C39.4236 11.7629 39.4058 11.6311 39.3703 11.5034C39.359 11.4584 39.3325 11.419 39.3174 11.3759C39.291 11.2959 39.2581 11.2182 39.2191 11.1434C39.1926 11.0947 39.1492 11.0553 39.117 11.0084C39.0755 10.9469 39.03 10.888 38.9809 10.8322C38.9338 10.7922 38.8846 10.7546 38.8335 10.7197C38.7805 10.6741 38.725 10.6315 38.6672 10.5922L20.4667 0.200961C20.2369 0.0693092 19.9761 0 19.7107 0C19.4452 0 19.1845 0.0693092 18.9546 0.200961L0.757963 10.5922C0.698885 10.6305 0.643236 10.6738 0.591628 10.7216C0.539501 10.7559 0.489626 10.7934 0.442305 10.8341C0.393417 10.8889 0.348568 10.9472 0.308103 11.0084C0.27408 11.0553 0.232496 11.0947 0.204144 11.1434C0.16541 11.2181 0.133161 11.2958 0.107745 11.3759C0.0871009 11.4167 0.0688001 11.4587 0.0529303 11.5015C0.0181568 11.63 0.000366058 11.7623 5.60539e-06 11.8953V73.7138C-0.000718933 73.9778 0.0688076 74.2374 0.201561 74.4662C0.334315 74.695 0.525593 74.885 0.756073 75.017L37.1418 95.7994C37.2227 95.8399 37.3068 95.8737 37.3932 95.9006C37.4329 95.9156 37.4707 95.9381 37.5123 95.9494C37.7661 96.0169 38.0334 96.0169 38.2872 95.9494C38.325 95.94 38.3572 95.9194 38.3912 95.9081C38.4825 95.8797 38.571 95.8433 38.6558 95.7994L75.0529 75.017C75.2834 74.885 75.4747 74.695 75.6074 74.4662C75.7402 74.2374 75.8097 73.9778 75.809 73.7138V53.9777L93.2439 44.0196C93.4758 43.8868 93.6679 43.6953 93.8008 43.4647C93.9336 43.2341 94.0023 42.9727 93.9999 42.7071V22.1103C94.001 21.9783 93.9857 21.8467 93.9546 21.7184ZM19.7088 3.24033L34.866 11.8934L19.7069 20.5521L4.55153 11.8953L19.7088 3.24033ZM36.3895 14.4903V52.2377L27.5946 57.2608L21.2266 60.8983V23.1565L30.0215 18.1334L36.3895 14.4903ZM36.3895 91.8863L3.03184 72.8438V14.4978L9.39981 18.1315L18.1929 23.1565V63.5026C18.1967 63.5593 18.2043 63.6157 18.2156 63.6714C18.2201 63.7458 18.2302 63.8197 18.2458 63.8926C18.265 63.9507 18.289 64.0072 18.3176 64.0614C18.3387 64.126 18.3652 64.1887 18.397 64.2489C18.4319 64.2997 18.4698 64.3486 18.5104 64.3951C18.5482 64.4505 18.5899 64.5031 18.6352 64.5526C18.6786 64.5939 18.7335 64.6239 18.7807 64.6614C18.8323 64.7058 18.8866 64.7472 18.9433 64.7851L36.3687 74.5688L36.3895 91.8863ZM37.9016 71.9795L22.769 63.482L38.6634 54.4052L56.1021 44.4471L71.248 53.0964L60.1338 59.3889L37.9016 71.9795ZM72.779 72.8363L39.4195 91.8957V74.5876L64.1277 60.6001L72.779 55.697V72.8363ZM72.779 50.4995L66.411 46.8752L57.6161 41.8521V24.7109L63.9841 28.3484L72.779 33.3752V50.4995ZM74.2912 30.7596L59.132 22.1028L74.2912 13.4478L89.4465 22.1009L74.2912 30.7596ZM75.8033 50.4995V33.3752L84.6171 28.3484L90.9832 24.7109V41.8464L75.8033 50.4995Z" fill="black"/>
</svg>
