<svg width="96" height="96" viewBox="0 0 96 96" fill="none" xmlns="http://www.w3.org/2000/svg">
<path d="M43.355 6.19348H46.4518V9.29026H43.355V6.19348Z" fill="black"/>
<path d="M55.7417 6.19348H58.8385V9.29026H55.7417V6.19348Z" fill="black"/>
<path d="M49.5483 6.19348H52.6451V9.29026H49.5483V6.19348Z" fill="black"/>
<path d="M15.4839 27.8708H18.5807V30.9676H15.4839V27.8708Z" fill="black"/>
<path d="M27.8711 27.8708H30.9679V30.9676H27.8711V27.8708Z" fill="black"/>
<path d="M21.6772 27.8708H24.774V30.9676H21.6772V27.8708Z" fill="black"/>
<path d="M43.355 49.5483H46.4518V52.6451H43.355V49.5483Z" fill="black"/>
<path d="M49.5483 49.5483H52.6451V52.6451H49.5483V49.5483Z" fill="black"/>
<path d="M55.7417 49.5483H58.8385V52.6451H55.7417V49.5483Z" fill="black"/>
<path d="M75.8709 49.5483C69.8957 49.5483 65.0322 54.4103 65.0322 60.387C65.0322 66.3638 69.8957 71.2258 75.8709 71.2258C81.8462 71.2258 86.7096 66.3638 86.7096 60.387C86.7096 54.4103 81.8462 49.5483 75.8709 49.5483ZM75.8709 68.129C71.602 68.129 68.129 64.656 68.129 60.387C68.129 56.1181 71.602 52.6451 75.8709 52.6451C80.1398 52.6451 83.6129 56.1181 83.6129 60.387C83.6129 64.656 80.1398 68.129 75.8709 68.129Z" fill="black"/>
<path d="M75.8707 55.7418C73.3097 55.7418 71.2256 57.826 71.2256 60.387C71.2256 62.948 73.3097 65.0321 75.8707 65.0321C78.4318 65.0321 80.5159 62.948 80.5159 60.387C80.5159 57.826 78.4318 55.7418 75.8707 55.7418ZM75.8707 61.9354C75.016 61.9354 74.3224 61.2401 74.3224 60.387C74.3224 59.5338 75.016 58.8386 75.8707 58.8386C76.7255 58.8386 77.4191 59.5338 77.4191 60.387C77.4191 61.2401 76.7255 61.9354 75.8707 61.9354Z" fill="black"/>
<path d="M92.7236 55.0932C92.256 54.9399 91.8921 54.6039 91.7218 54.1672C91.6428 53.9644 91.5608 53.7646 91.4741 53.5649C91.2914 53.1437 91.313 52.6498 91.5329 52.2132C92.4635 50.3737 92.1089 48.1579 90.6519 46.6978L89.5603 45.6077C88.1032 44.1492 85.8875 43.7946 84.0464 44.7252C83.6114 44.9481 83.1174 44.9683 82.6932 44.784C82.4934 44.6973 82.2906 44.6137 82.0877 44.5347C81.6557 44.3675 81.3197 44.0005 81.1649 43.5329C80.6044 41.825 79.1505 40.6064 77.4193 40.3231V13.0281L84.0666 19.6754L86.256 17.4859L75.871 7.1009L65.4859 17.4859L67.6754 19.6754L74.3226 13.0281V40.3231C72.5915 40.608 71.1376 41.8266 70.577 43.5345C70.4222 44.0021 70.0877 44.3675 69.6573 44.5347C69.4514 44.6137 69.2485 44.6973 69.0472 44.7855C68.623 44.9683 68.1306 44.9466 67.6955 44.7267C66.3886 44.0655 64.8929 44.0655 63.5938 44.6555C62.7608 43.8534 61.6335 43.3548 60.3871 43.3548V37.1613C62.9481 37.1613 65.0323 35.0772 65.0323 32.5161V26.3226C65.0323 23.7615 62.9481 21.6774 60.3871 21.6774V15.4839C62.9481 15.4839 65.0323 13.3997 65.0323 10.8387V4.64516C65.0323 2.08413 62.9481 0 60.3871 0H13.9355C11.3745 0 9.29032 2.08413 9.29032 4.64516V10.8387C9.29032 13.3997 11.3745 15.4839 13.9355 15.4839V21.6774C11.3745 21.6774 9.29032 23.7615 9.29032 26.3226V32.5161C9.29032 35.0772 11.3745 37.1613 13.9355 37.1613V43.3548C11.3745 43.3548 9.29032 45.439 9.29032 48V54.1935C9.29032 56.7546 11.3745 58.8387 13.9355 58.8387H18.8934C16.3308 61.3564 14.3721 64.5213 13.3022 68.143C5.91019 68.4759 0 74.5935 0 82.0645C0 89.7476 6.25084 96 13.9355 96H72.7742C78.7494 96 83.6129 91.1381 83.6129 85.1613C83.6129 82.385 82.5554 79.8581 80.8335 77.9396C80.9528 77.7104 81.0844 77.4875 81.1649 77.2413C81.3197 76.7737 81.6542 76.4083 82.0846 76.241C82.2906 76.1621 82.4934 76.0784 82.6947 75.9902C83.1174 75.8059 83.6083 75.8261 84.0464 76.049C85.8859 76.9796 88.1017 76.6235 89.5603 75.1664L90.6519 74.0748C92.1089 72.6163 92.4635 70.4005 91.5329 68.5626C91.3115 68.1244 91.2914 67.632 91.4756 67.2077C91.5608 67.0095 91.6428 66.8098 91.7234 66.6039C91.8921 66.1703 92.2575 65.8343 92.7267 65.681C94.6839 65.0369 96 63.2206 96 61.1582V59.616C96 57.5551 94.6823 55.7373 92.7236 55.0932ZM12.3871 10.8387V4.64516C12.3871 3.792 13.0808 3.09677 13.9355 3.09677H60.3871C61.2418 3.09677 61.9355 3.792 61.9355 4.64516V10.8387C61.9355 11.6919 61.2418 12.3871 60.3871 12.3871H13.9355C13.0808 12.3871 12.3871 11.6919 12.3871 10.8387ZM17.0323 15.4839H57.2903V21.6774H17.0323V15.4839ZM12.3871 32.5161V26.3226C12.3871 25.4694 13.0808 24.7742 13.9355 24.7742H60.3871C61.2418 24.7742 61.9355 25.4694 61.9355 26.3226V32.5161C61.9355 33.3693 61.2418 34.0645 60.3871 34.0645H13.9355C13.0808 34.0645 12.3871 33.3693 12.3871 32.5161ZM17.0323 37.1613H57.2903V43.3548H17.0323V37.1613ZM13.9355 55.7419C13.0808 55.7419 12.3871 55.0467 12.3871 54.1935V48C12.3871 47.1468 13.0808 46.4516 13.9355 46.4516H60.3871C61.2418 46.4516 61.9355 47.1468 61.9355 48V54.1935C61.9355 55.0467 61.2418 55.7419 60.3871 55.7419H45.2532C41.9551 53.76 38.1197 52.6452 34.0645 52.6452C29.9985 52.6452 26.1708 53.7708 22.8898 55.7419H13.9355ZM58.0227 65.2057C57.2748 65.0926 56.513 65.0323 55.7419 65.0323C55.056 65.0323 54.3809 65.0772 53.7182 65.1639C52.6003 62.7592 51.0844 60.6302 49.265 58.8387H55.8209C55.7791 59.0957 55.7419 59.3528 55.7419 59.616V61.1582C55.7419 62.8428 56.6307 64.3541 58.0227 65.2057ZM72.7742 92.9032H13.9355C7.96026 92.9032 3.09677 88.0413 3.09677 82.0645C3.09677 76.0877 7.96026 71.2258 13.9355 71.2258C14.0191 71.2258 14.0996 71.232 14.1817 71.2382L15.7006 71.3094L15.9948 70.0599C17.9783 61.6289 25.4075 55.7419 34.0645 55.7419C41.1515 55.7419 47.4828 59.6764 50.6323 65.8978C44.5982 68.0129 40.2581 73.7683 40.2581 80.5161H43.3548C43.3548 73.6862 48.912 68.129 55.7419 68.129C61.2124 68.129 66.0991 71.7987 67.6289 77.0539L68.1166 78.7339L69.7239 78.0449C70.6932 77.6299 71.7182 77.4193 72.7742 77.4193C77.0431 77.4193 80.5161 80.8924 80.5161 85.1613C80.5161 89.4302 77.0431 92.9032 72.7742 92.9032ZM92.9032 61.1582C92.9032 61.8782 92.4418 62.513 91.759 62.7391C90.4072 63.1819 89.3419 64.1822 88.8387 65.4782C88.7721 65.6454 88.704 65.8126 88.6328 65.9768C88.0815 67.2449 88.1311 68.6957 88.7675 69.9592C89.0926 70.6018 88.9688 71.3775 88.4609 71.8854L87.3693 72.977C86.8583 73.4849 86.0872 73.6119 85.4431 73.2852C84.1812 72.6472 82.7334 72.5992 81.4622 73.1505C81.2996 73.2201 81.1355 73.2883 80.9667 73.3548C79.793 73.8116 78.8872 74.7391 78.3902 75.9097C76.7489 74.9094 74.8305 74.3226 72.7742 74.3226C71.8529 74.3226 70.9486 74.4372 70.0692 74.6648C68.7453 71.4317 66.367 68.7871 63.4188 67.0916C63.3585 66.7076 63.264 66.3298 63.1107 65.9768C63.0379 65.8126 62.9698 65.6454 62.9048 65.4797C62.4 64.1806 61.3332 63.1819 59.983 62.7375C59.2986 62.5146 58.8387 61.8782 58.8387 61.1582V59.616C58.8387 59.3388 58.9285 59.0803 59.0586 58.8387H60.3871C62.9481 58.8387 65.0323 56.7546 65.0323 54.1935V48C65.0323 47.8049 64.9982 47.6206 64.975 47.4317C65.3992 47.2738 65.8746 47.2738 66.2988 47.489C67.5608 48.127 69.0116 48.1765 70.2797 47.6237C70.4423 47.5541 70.6064 47.4859 70.7752 47.4209C72.0743 46.9146 73.073 45.8493 73.5174 44.4975C73.7435 43.8147 74.3783 43.3548 75.0999 43.3548H76.6421C77.3636 43.3548 77.9985 43.8147 78.223 44.5022C78.6674 45.8524 79.6676 46.9161 80.9683 47.4225C81.1339 47.4875 81.2981 47.5541 81.4591 47.6237C82.7272 48.175 84.1812 48.127 85.4415 47.489C86.0857 47.1639 86.8568 47.2877 87.3677 47.7987L88.4578 48.8872C88.9672 49.3982 89.0911 50.1724 88.7659 50.8165C88.1295 52.0784 88.08 53.5308 88.6297 54.7974C88.7025 54.9615 88.7706 55.1288 88.8356 55.2944C89.3404 56.5935 90.4072 57.5923 91.7574 58.0366C92.4434 58.2596 92.9032 58.896 92.9032 59.616V61.1582Z" fill="black"/>
<path d="M18.9629 70.882L21.9838 71.5679C23.2705 65.8977 28.2393 61.9354 34.0643 61.9354V58.8386C26.7838 58.8386 20.5732 63.7919 18.9629 70.882Z" fill="black"/>
<path d="M55.7417 71.2257V74.3225C59.1574 74.3225 61.9352 77.1003 61.9352 80.516H65.032C65.032 75.3924 60.8653 71.2257 55.7417 71.2257Z" fill="black"/>
</svg>
