<svg width="101" height="98" viewBox="0 0 101 98" fill="none" xmlns="http://www.w3.org/2000/svg">
<path d="M62.0505 80.5776H93.8367C97.5667 80.5776 100.597 77.5308 100.597 73.8023V7.52531V7.52425C100.581 3.78072 97.5509 0.75 93.8061 0.75H7.52531C3.79641 0.75 0.75 3.78036 0.75 7.52531V73.8023C0.75 77.5316 3.79603 80.5776 7.52531 80.5776H39.2962L36.3675 89.0174H28.171C27.605 89.0174 27.1569 89.4656 27.1569 90.0315V96.2359C27.1569 96.8019 27.605 97.25 28.171 97.25H73.1757C73.7417 97.25 74.1898 96.8019 74.1898 96.2359V90.0315C74.1898 89.4656 73.7417 89.0174 73.1757 89.0174H64.9792L62.0505 80.5776ZM98.5685 73.5523H98.5532V73.8023C98.5532 76.4159 96.433 78.5494 93.8214 78.5494H60.6753H60.6752H60.6751H60.675H60.6749H60.6748H60.6747H60.6746H60.6745H60.6745H60.6744H60.6743H60.6742H60.6741H60.674H60.6739H60.6738H60.6737H60.6736H60.6736H60.6735H60.6734H60.6733H60.6732H60.6731H60.673H60.6729H60.6728H60.6727H60.6727H60.6726H60.6725H60.6724H60.6723H60.6722H60.6721H60.672H60.6719H60.6718H60.6718H60.6717H60.6716H60.6715H60.6714H60.6713H60.6712H60.6711H60.671H60.6709H60.6709H60.6708H60.6707H60.6706H60.6705H60.6704H60.6703H60.6702H60.6701H60.67H60.67H60.6699H60.6698H60.6697H60.6696H60.6695H60.6694H60.6693H60.6692H60.6691H60.669H60.669H60.6689H60.6688H60.6687H60.6686H60.6685H60.6684H60.6683H60.6682H60.6681H60.668H60.6679H60.6679H60.6678H60.6677H60.6676H60.6675H60.6674H60.6673H60.6672H60.6671H60.667H60.6669H60.6668H60.6667H60.6667H60.6666H60.6665H60.6664H60.6663H60.6662H60.6661H60.666H60.6659H60.6658H60.6657H60.6656H60.6655H60.6654H60.6654H60.6653H60.6652H60.6651H60.665H60.6649H60.6648H60.6647H60.6646H60.6645H60.6644H60.6643H60.6642H60.6641H60.664H60.6639H60.6638H60.6637H60.6637H60.6636H60.6635H60.6634H60.6633H60.6632H60.6631H60.663H60.6629H60.6628H60.6627H60.6626H60.6625H60.6624H60.6623H60.6622H60.6621H60.662H60.6619H60.6618H60.6617H60.6616H60.6615H60.6614H60.6613H60.6612H60.6612H60.6611H60.661H60.6609H60.6608H60.6607H60.6606H60.6605H60.6604H60.6603H60.6602H60.6601H60.66H60.6599H60.6598H60.6597H60.6596H60.6595H60.6594H60.6593H60.6592H60.6591H60.659H60.6589H60.6588H60.6587H60.6586H60.6585H60.6584H60.6583H60.6582H60.6581H60.658H60.6579H60.6578H60.6577H60.6576H60.6575H60.6574H60.6573H60.6572H60.6571H60.657H60.6569H60.6567H60.6566H60.6565H60.6564H60.6563H60.6562H60.6561H60.656H60.6559H60.6558H60.6557H60.6556H60.6555H60.6554H60.6553H60.6552H60.6551H60.655H60.6549H60.6548H60.6547H60.6546H60.6545H60.6543H60.6542H60.6541H60.654H60.6539H60.6538H60.6537H60.6536H60.6535H60.6534H60.6533H60.6532H60.6531H60.653H60.6528H60.6527H60.6526H60.6525H60.6524H60.6523H60.6522H60.6521H60.652H60.6519H60.6518H60.6516H60.6515H60.6514H60.6513H60.6512H60.6511H60.651H60.6509H60.6508H60.6507H60.6505H60.6504H60.6503H60.6502H60.6501H60.65H60.6499H60.6497H60.6496H60.6495H60.6494H60.6493H60.6492H60.6491H60.649H60.6488H60.6487H60.6486H60.6485H60.6484H60.6483H60.6482H60.648H60.6479H60.6478H60.6477H60.6476H60.6475H60.6473H60.6472H60.6471H60.647H60.6469H60.6468H60.6466H60.6465H60.6464H60.6463H60.6462H60.646H60.6459H60.6458H60.6457H60.6456H60.6454H60.6453H60.6452H60.6451H60.645H60.6448H60.6447H60.6446H60.6445H60.6444H60.6442H60.6441H60.644H60.6439H60.6437H60.6436H60.6435H60.6434H60.6432H60.6431H60.643H60.6429H60.6427H60.6426H60.6425H60.6424H60.6423H60.6421H60.642H60.6419H60.6417H60.6416H60.6415H60.6414H60.6412H60.6411H60.641H60.6409H60.6407H60.6406H60.6405H60.6403H60.6402H60.6401H60.6399H60.6398H60.6397H60.6396H60.6394H60.6393H60.6392H60.639H60.6389H60.6388H60.6386H60.6385H60.6384H60.6382H60.6381H60.638H60.6378H60.6377H60.6376H60.6374H60.6373H60.6372H60.637H60.6369H60.6368H60.6366H60.6365H60.6364H60.6362H60.6361H60.636H60.6358H60.6357H60.6355H60.6354H60.6353H60.6351H60.635H60.6348H60.6347H60.6346H60.6344H60.6343H60.6341H60.634H60.6339H60.6337H60.6336H60.6334H60.6333H60.6332H60.633H60.6329H60.6327H60.6326H60.6324H60.6323H60.6322H60.632H60.6319H60.6317H60.6316H60.6314H60.6313H60.6311H60.631H60.6308H60.6307H60.6306H60.6304H60.6303H60.6301H60.63H60.6298H60.6297H60.6295H60.6294H60.6292H60.6291H60.6289H60.6288H60.6286H60.6285H60.6283H60.6282H60.628H60.6279H60.6277H60.6276H60.6274H60.6272H60.6271H60.6269H60.6268H60.6266H60.6265H60.6263H60.6262H60.626H60.6259H60.6257H60.6255H60.6254H60.6252H60.6251H60.6249H60.6247H60.6246H60.6244H60.6243H60.6241H60.624H60.6238H60.6236H60.6235H60.6233H60.6231H60.623H60.6228H60.6227H60.6225H60.6223H60.6222H60.622H60.6218H60.6217H60.6215H60.6214H60.6212H60.621H60.6209H60.6207H60.6205H60.6204H60.6202H60.62H60.6199H60.6197H60.6195H60.6194H60.6192H60.619H60.6188H60.6187H60.6185H60.6183H60.6182H60.618H60.6178H60.6176H60.6175H60.6173H60.6171H60.617H60.6168H60.6166H60.6164H60.6163H60.6161H60.6159H60.6157H60.6156H60.6154H60.6152H60.615H60.6148H60.6147H60.6145H60.6143H60.6141H40.702H40.7019H40.7018H40.7017H40.7016H40.7016H40.7015H40.7014H40.7013H40.7012H40.7011H40.701H40.7009H40.7008H40.7007H40.7007H40.7006H40.7005H40.7004H40.7003H40.7002H40.7001H40.7H40.6999H40.6999H40.6998H40.6997H40.6996H40.6995H40.6994H40.6993H40.6992H40.6991H40.699H40.699H40.6989H40.6988H40.6987H40.6986H40.6985H40.6984H40.6983H40.6982H40.6981H40.6981H40.698H40.6979H40.6978H40.6977H40.6976H40.6975H40.6974H40.6973H40.6972H40.6972H40.6971H40.697H40.6969H40.6968H40.6967H40.6966H40.6965H40.6964H40.6963H40.6962H40.6962H40.6961H40.696H40.6959H40.6958H40.6957H40.6956H40.6955H40.6954H40.6953H40.6952H40.6951H40.6951H40.695H40.6949H40.6948H40.6947H40.6946H40.6945H40.6944H40.6943H40.6942H40.6941H40.694H40.694H40.6939H40.6938H40.6937H40.6936H40.6935H40.6934H40.6933H40.6932H40.6931H40.693H40.6929H40.6928H40.6927H40.6927H40.6926H40.6925H40.6924H40.6923H40.6922H40.6921H40.692H40.6919H40.6918H40.6917H40.6916H40.6915H40.6914H40.6913H40.6912H40.6912H40.6911H40.691H40.6909H40.6908H40.6907H40.6906H40.6905H40.6904H40.6903H40.6902H40.6901H40.69H40.6899H40.6898H40.6897H40.6896H40.6895H40.6894H40.6894H40.6893H40.6892H40.6891H40.689H40.6889H40.6888H40.6887H40.6886H40.6885H40.6884H40.6883H40.6882H40.6881H40.688H40.6879H40.6878H40.6877H40.6876H40.6875H40.6874H40.6873H40.6872H40.6871H40.687H40.6869H40.6868H40.6867H40.6866H40.6865H40.6864H40.6863H40.6862H40.6861H40.686H40.6859H40.6858H40.6857H40.6856H40.6855H40.6854H40.6853H40.6852H40.6851H40.685H40.6849H40.6848H40.6847H40.6846H40.6845H40.6844H40.6843H40.6842H40.6841H40.684H40.6839H40.6838H40.6837H40.6836H40.6835H40.6834H40.6833H40.6832H40.6831H40.683H40.6829H40.6828H40.6827H40.6826H40.6825H40.6824H40.6823H40.6821H40.682H40.6819H40.6818H40.6817H40.6816H40.6815H40.6814H40.6813H40.6812H40.6811H40.681H40.6809H40.6808H40.6807H40.6806H40.6805H40.6803H40.6802H40.6801H40.68H40.6799H40.6798H40.6797H40.6796H40.6795H40.6794H40.6793H40.6792H40.6791H40.6789H40.6788H40.6787H40.6786H40.6785H40.6784H40.6783H40.6782H40.6781H40.678H40.6778H40.6777H40.6776H40.6775H40.6774H40.6773H40.6772H40.6771H40.6769H40.6768H40.6767H40.6766H40.6765H40.6764H40.6763H40.6762H40.676H40.6759H40.6758H40.6757H40.6756H40.6755H40.6754H40.6752H40.6751H40.675H40.6749H40.6748H40.6747H40.6745H40.6744H40.6743H40.6742H40.6741H40.674H40.6739H40.6737H40.6736H40.6735H40.6734H40.6733H40.6731H40.673H40.6729H40.6728H40.6727H40.6726H40.6724H40.6723H40.6722H40.6721H40.6719H40.6718H40.6717H40.6716H40.6715H40.6713H40.6712H40.6711H40.671H40.6709H40.6707H40.6706H40.6705H40.6704H40.6702H40.6701H40.67H40.6699H40.6697H40.6696H40.6695H40.6694H40.6692H40.6691H40.669H40.6689H40.6687H40.6686H40.6685H40.6684H40.6682H40.6681H40.668H40.6679H40.6677H40.6676H40.6675H40.6673H40.6672H40.6671H40.667H40.6668H40.6667H40.6666H40.6664H40.6663H40.6662H40.666H40.6659H40.6658H40.6657H40.6655H40.6654H40.6653H40.6651H40.665H40.6649H40.6647H40.6646H40.6645H40.6643H40.6642H40.6641H40.6639H40.6638H40.6637H40.6635H40.6634H40.6632H40.6631H40.663H40.6628H40.6627H40.6626H40.6624H40.6623H40.6621H40.662H40.6619H40.6617H40.6616H40.6615H40.6613H40.6612H40.661H40.6609H40.6608H40.6606H40.6605H40.6603H40.6602H40.66H40.6599H40.6598H40.6596H40.6595H40.6593H40.6592H40.659H40.6589H40.6588H40.6586H40.6585H40.6583H40.6582H40.658H40.6579H40.6577H40.6576H40.6574H40.6573H40.6572H40.657H40.6569H40.6567H40.6566H40.6564H40.6563H40.6561H40.656H40.6558H40.6557H40.6555H40.6554H40.6552H40.6551H40.6549H40.6548H40.6546H40.6545H40.6543H40.6541H40.654H40.6538H40.6537H40.6535H40.6534H40.6532H40.6531H40.6529H40.6528H40.6526H40.6524H40.6523H40.6521H40.652H40.6518H40.6517H40.6515H40.6513H40.6512H40.651H40.6509H40.6507H40.6505H40.6504H40.6502H40.6501H40.6499H40.6497H40.6496H40.6494H40.6493H40.6491H40.6489H40.6488H40.6486H40.6484H40.6483H40.6481H40.6479H40.6478H40.6476H40.6474H40.6473H40.6471H40.6469H40.6468H40.6466H40.6464H40.6463H40.6461H40.6459H40.6458H40.6456H40.6454H40.6452H40.6451H40.6449H40.6447H40.6446H40.6444H40.6442H40.644H40.6439H40.6437H40.6435H40.6434H40.6432H40.643H40.6428H40.6427H40.6425H40.6423H40.6421H40.6419H40.6418H40.6416H40.6414H40.6412H40.6411H40.6409H7.52531C4.91267 78.5494 2.77818 76.4149 2.77818 73.8023V64.7889C3.99407 66.0029 5.66472 66.7782 7.52531 66.7782H93.8214C95.6842 66.7782 97.3444 66.0131 98.5685 64.7996V73.5523ZM98.5685 59.7529H98.5532V60.0029C98.5532 62.6155 96.4188 64.75 93.8061 64.75H7.52531C4.91267 64.75 2.77818 62.6155 2.77818 60.0029V7.52531C2.77818 4.91266 4.91267 2.77818 7.52531 2.77818H93.8214C96.434 2.77818 98.5685 4.91266 98.5685 7.52531V59.7529ZM72.1617 91.0456V95.2218H29.1851V91.0456H72.1617ZM59.9014 80.5776L62.8301 89.0174H38.5166L41.4453 80.5776H59.9014Z" fill="black" stroke="black" stroke-width="0.5"/>
<path d="M94.8355 7.52532H94.8356L94.8353 7.5164C94.8154 6.9591 94.3737 6.51123 93.8061 6.51123H7.52532C6.95936 6.51123 6.51123 6.95936 6.51123 7.52532V60.0029C6.51123 60.5688 6.95936 61.017 7.52532 61.017H93.8214C94.3874 61.017 94.8355 60.5688 94.8355 60.0029V7.52532ZM92.8073 58.9888H8.53941V8.53941H92.8073V58.9888Z" fill="black" stroke="black" stroke-width="0.5"/>
<path d="M50.6659 68.7538C48.5259 68.7538 46.7788 70.5009 46.7788 72.6408C46.7788 74.7808 48.5259 76.5279 50.6659 76.5279C52.8058 76.5279 54.5529 74.7808 54.5529 72.6408C54.5529 70.5015 52.8218 68.7538 50.6659 68.7538ZM50.6659 74.515C49.6425 74.515 48.807 73.6795 48.807 72.6561C48.807 71.6328 49.6425 70.7972 50.6659 70.7972C51.6892 70.7972 52.5248 71.6328 52.5248 72.6561C52.5248 73.6795 51.6892 74.515 50.6659 74.515Z" fill="black" stroke="black" stroke-width="0.5"/>
<path d="M14.4174 13.399H27.4375C28.0034 13.399 28.4516 12.9509 28.4516 12.3849C28.4516 11.819 28.0034 11.3708 27.4375 11.3708H14.4174C13.8514 11.3708 13.4033 11.819 13.4033 12.3849C13.4033 12.9509 13.8514 13.399 14.4174 13.399Z" fill="black" stroke="black" stroke-width="0.5"/>
<path d="M29.5767 19.0729H18.7573C18.1913 19.0729 17.7432 19.521 17.7432 20.087C17.7432 20.6529 18.1913 21.1011 18.7573 21.1011H29.5767C30.1427 21.1011 30.5908 20.6529 30.5908 20.087C30.5908 19.521 30.1427 19.0729 29.5767 19.0729Z" fill="black" stroke="black" stroke-width="0.5"/>
<path d="M29.5767 22.9238H18.7573C18.1913 22.9238 17.7432 23.372 17.7432 23.9379C17.7432 24.5039 18.1913 24.952 18.7573 24.952H29.5767C30.1427 24.952 30.5908 24.5039 30.5908 23.9379C30.5908 23.372 30.1427 22.9238 29.5767 22.9238Z" fill="black" stroke="black" stroke-width="0.5"/>
<path d="M29.5767 26.7902H18.7573C18.1913 26.7902 17.7432 27.2383 17.7432 27.8042C17.7432 28.3702 18.1913 28.8183 18.7573 28.8183H29.5767C30.1427 28.8183 30.5908 28.3702 30.5908 27.8042C30.5908 27.2383 30.1427 26.7902 29.5767 26.7902Z" fill="black" stroke="black" stroke-width="0.5"/>
<path d="M34.0087 28.8183H42.3067C42.8727 28.8183 43.3208 28.3702 43.3208 27.8042C43.3208 27.2383 42.8727 26.7902 42.3067 26.7902H34.0087C33.4428 26.7902 32.9946 27.2383 32.9946 27.8042C32.9946 28.3702 33.4428 28.8183 34.0087 28.8183Z" fill="black" stroke="black" stroke-width="0.5"/>
<path d="M33.5195 32.6693H55.1584C55.7244 32.6693 56.1725 32.2212 56.1725 31.6552C56.1725 31.0892 55.7244 30.6411 55.1584 30.6411H33.5195C32.9535 30.6411 32.5054 31.0892 32.5054 31.6552C32.5054 32.2212 32.9535 32.6693 33.5195 32.6693Z" fill="black" stroke="black" stroke-width="0.5"/>
<path d="M56.9005 26.7902H48.6025C48.0365 26.7902 47.5884 27.2383 47.5884 27.8042C47.5884 28.3702 48.0365 28.8183 48.6025 28.8183H56.9005C57.4664 28.8183 57.9145 28.3702 57.9145 27.8042C57.9145 27.2383 57.4664 26.7902 56.9005 26.7902Z" fill="black" stroke="black" stroke-width="0.5"/>
<path d="M60.2778 32.6693H68.5758C69.1417 32.6693 69.5898 32.2212 69.5898 31.6552C69.5898 31.0892 69.1417 30.6411 68.5758 30.6411H60.2778C59.7118 30.6411 59.2637 31.0892 59.2637 31.6552C59.2637 32.2212 59.7118 32.6693 60.2778 32.6693Z" fill="black" stroke="black" stroke-width="0.5"/>
<path d="M62.1826 27.8042C62.1826 28.3702 62.6307 28.8183 63.1967 28.8183H71.4947C72.0607 28.8183 72.5088 28.3702 72.5088 27.8042C72.5088 27.2383 72.0607 26.7902 71.4947 26.7902H63.1967C62.6493 26.7902 62.1826 27.235 62.1826 27.8042Z" fill="black" stroke="black" stroke-width="0.5"/>
<path d="M29.5767 30.6411H18.7573C18.1913 30.6411 17.7432 31.0892 17.7432 31.6552C17.7432 32.2212 18.1913 32.6693 18.7573 32.6693H29.5767C30.1427 32.6693 30.5908 32.2212 30.5908 31.6552C30.5908 31.0892 30.1427 30.6411 29.5767 30.6411Z" fill="black" stroke="black" stroke-width="0.5"/>
<path d="M14.4174 17.25H32.0984C32.6644 17.25 33.1125 16.8019 33.1125 16.2359C33.1125 15.6699 32.6644 15.2218 32.0984 15.2218H14.4174C13.8514 15.2218 13.4033 15.6699 13.4033 16.2359C13.4033 16.8019 13.8514 17.25 14.4174 17.25Z" fill="black" stroke="black" stroke-width="0.5"/>
<path d="M14.4174 37.4525H27.4375C28.0034 37.4525 28.4516 37.0044 28.4516 36.4384C28.4516 35.8724 28.0034 35.4243 27.4375 35.4243H14.4174C13.8514 35.4243 13.4033 35.8724 13.4033 36.4384C13.4033 37.0044 13.8514 37.4525 14.4174 37.4525Z" fill="black" stroke="black" stroke-width="0.5"/>
<path d="M29.5767 43.1416H18.7573C18.1913 43.1416 17.7432 43.5897 17.7432 44.1557C17.7432 44.7217 18.1913 45.1698 18.7573 45.1698H29.5767C30.1427 45.1698 30.5908 44.7216 30.5908 44.1557C30.5908 43.5897 30.1427 43.1416 29.5767 43.1416Z" fill="black" stroke="black" stroke-width="0.5"/>
<path d="M29.5767 46.9926H18.7573C18.1913 46.9926 17.7432 47.4407 17.7432 48.0066C17.7432 48.5726 18.1913 49.0207 18.7573 49.0207H29.5767C30.1427 49.0207 30.5908 48.5726 30.5908 48.0066C30.5908 47.4407 30.1427 46.9926 29.5767 46.9926Z" fill="black" stroke="black" stroke-width="0.5"/>
<path d="M29.5767 50.8436H18.7573C18.1913 50.8436 17.7432 51.2918 17.7432 51.8577C17.7432 52.4237 18.1913 52.8718 18.7573 52.8718H29.5767C30.1427 52.8718 30.5908 52.4237 30.5908 51.8577C30.5908 51.2918 30.1427 50.8436 29.5767 50.8436Z" fill="black" stroke="black" stroke-width="0.5"/>
<path d="M42.3067 52.8718C42.8727 52.8718 43.3208 52.4237 43.3208 51.8577C43.3208 51.2918 42.8727 50.8436 42.3067 50.8436H34.0087C33.4428 50.8436 32.9946 51.2918 32.9946 51.8577C32.9946 52.4237 33.4428 52.8718 34.0087 52.8718H42.3067Z" fill="black" stroke="black" stroke-width="0.5"/>
<path d="M55.1584 54.7098H33.5195C32.9535 54.7098 32.5054 55.158 32.5054 55.7239C32.5054 56.2899 32.9535 56.738 33.5195 56.738H55.1584C55.7244 56.738 56.1725 56.2899 56.1725 55.7239C56.1725 55.158 55.7244 54.7098 55.1584 54.7098Z" fill="black" stroke="black" stroke-width="0.5"/>
<path d="M56.9005 50.8436H48.6025C48.0365 50.8436 47.5884 51.2918 47.5884 51.8577C47.5884 52.4237 48.0365 52.8718 48.6025 52.8718H56.9005C57.4664 52.8718 57.9145 52.4237 57.9145 51.8577C57.9145 51.2918 57.4664 50.8436 56.9005 50.8436Z" fill="black" stroke="black" stroke-width="0.5"/>
<path d="M68.5758 54.7098H60.2778C59.7118 54.7098 59.2637 55.158 59.2637 55.7239C59.2637 56.2899 59.7118 56.738 60.2778 56.738H68.5758C69.1417 56.738 69.5898 56.2899 69.5898 55.7239C69.5898 55.1547 69.1232 54.7098 68.5758 54.7098Z" fill="black" stroke="black" stroke-width="0.5"/>
<path d="M71.51 50.8436H63.1967C62.6307 50.8436 62.1826 51.2918 62.1826 51.8577C62.1826 52.4237 62.6307 52.8718 63.1967 52.8718H71.4947C72.0607 52.8718 72.5088 52.4237 72.5088 51.8577C72.5088 51.2951 72.0639 50.8436 71.51 50.8436Z" fill="black" stroke="black" stroke-width="0.5"/>
<path d="M29.5767 54.7098H18.7573C18.1913 54.7098 17.7432 55.158 17.7432 55.7239C17.7432 56.2899 18.1913 56.738 18.7573 56.738H29.5767C30.1427 56.738 30.5908 56.2899 30.5908 55.7239C30.5908 55.158 30.1427 54.7098 29.5767 54.7098Z" fill="black" stroke="black" stroke-width="0.5"/>
<path d="M14.4174 41.3187H32.0984C32.6644 41.3187 33.1125 40.8706 33.1125 40.3046C33.1125 39.7387 32.6644 39.2905 32.0984 39.2905H14.4174C13.8514 39.2905 13.4033 39.7387 13.4033 40.3046C13.4033 40.8706 13.8514 41.3187 14.4174 41.3187Z" fill="black" stroke="black" stroke-width="0.5"/>
<path d="M58.7958 22.4917C61.324 22.4917 63.3552 20.2331 63.3552 17.5043C63.3552 14.7755 61.324 12.517 58.7958 12.517C56.2518 12.517 54.2363 14.7761 54.2363 17.5043C54.2363 20.2331 56.2676 22.4917 58.7958 22.4917ZM58.7958 14.5451C60.1539 14.5451 61.3271 15.8354 61.3271 17.5043C61.3271 19.1732 60.1539 20.4635 58.7958 20.4635C57.4376 20.4635 56.2645 19.1732 56.2645 17.5043C56.2645 15.8354 57.4376 14.5451 58.7958 14.5451Z" fill="black" stroke="black" stroke-width="0.5"/>
<path d="M71.5938 21.0293L71.5953 21.0278C72.5278 20.0953 73.0592 18.84 73.0592 17.5043C73.0592 14.7531 70.8231 12.517 68.0718 12.517H65.9477C65.3817 12.517 64.9336 12.9651 64.9336 13.5311V21.4776C64.9336 22.0282 65.397 22.4917 65.9477 22.4917H68.0718C69.3924 22.4917 70.6316 21.9755 71.5938 21.0293ZM66.9618 14.5451H68.0718C69.7065 14.5451 71.031 15.8697 71.031 17.5043C71.031 18.2937 70.7213 19.0394 70.1731 19.5881C69.591 20.1555 68.8586 20.4635 68.0718 20.4635H66.9618V14.5451Z" fill="black" stroke="black" stroke-width="0.5"/>
<path d="M75.4985 22.4917H80.7401C81.3061 22.4917 81.7542 22.0435 81.7542 21.4776C81.7542 20.9116 81.3061 20.4635 80.7401 20.4635H76.5126V18.3045H80.7401C81.3061 18.3045 81.7542 17.8563 81.7542 17.2904C81.7542 16.7244 81.3061 16.2763 80.7401 16.2763H76.5126V14.5451H80.7401C81.3061 14.5451 81.7542 14.097 81.7542 13.5311C81.7542 12.9651 81.3061 12.517 80.7401 12.517H75.4985C74.9325 12.517 74.4844 12.9651 74.4844 13.5311V17.2904V21.4776C74.4844 22.0282 74.9478 22.4917 75.4985 22.4917Z" fill="black" stroke="black" stroke-width="0.5"/>
<path d="M46.5755 21.7373V16.3909L50.9221 22.3432L50.922 22.3432L50.9259 22.3482C51.1195 22.6 51.4184 22.7667 51.7353 22.7667C51.8238 22.7667 51.9131 22.7512 51.9864 22.7386C51.9984 22.7365 52.0099 22.7345 52.0209 22.7327L52.0402 22.7295L52.0588 22.7233C52.4868 22.5806 52.7494 22.1911 52.7494 21.7526V13.3018C52.7494 12.7358 52.3012 12.2877 51.7353 12.2877C51.1693 12.2877 50.7212 12.7358 50.7212 13.3018V18.6482L46.3746 12.6959L46.3747 12.6958L46.3713 12.6914C46.1138 12.3547 45.6691 12.1873 45.2379 12.3311C44.8099 12.4737 44.5474 12.8633 44.5474 13.3018V21.7526C44.5474 22.2912 45.014 22.7514 45.5615 22.7514C46.1274 22.7514 46.5755 22.3032 46.5755 21.7373Z" fill="black" stroke="black" stroke-width="0.5"/>
</svg>
