<svg width="96" height="96" viewBox="0 0 96 96" fill="none" xmlns="http://www.w3.org/2000/svg">
<path d="M28.3018 44.8605H44.2327C45.0095 44.8605 45.639 44.2309 45.639 43.4542C45.639 42.6776 45.0095 42.048 44.2327 42.048H28.3018C27.5249 42.048 26.8955 42.6776 26.8955 43.4542C26.8955 44.2309 27.5251 44.8605 28.3018 44.8605Z" fill="black"/>
<path d="M16.1797 44.8605H22.2406C23.0175 44.8605 23.6469 44.2309 23.6469 43.4542C23.6469 42.6776 23.0175 42.048 22.2406 42.048H16.1797C15.4029 42.048 14.7734 42.6776 14.7734 43.4542C14.7734 44.2309 15.4029 44.8605 16.1797 44.8605Z" fill="black"/>
<path d="M16.1797 50.9216H32.1333C32.9102 50.9216 33.5396 50.292 33.5396 49.5154C33.5396 48.7388 32.9102 48.1091 32.1333 48.1091H16.1797C15.4029 48.1091 14.7734 48.7388 14.7734 49.5154C14.7734 50.292 15.4029 50.9216 16.1797 50.9216Z" fill="black"/>
<path d="M45.6393 49.5154C45.6393 48.7388 45.0099 48.1091 44.2331 48.1091H38.1948C37.418 48.1091 36.7886 48.7388 36.7886 49.5154C36.7886 50.292 37.418 50.9216 38.1948 50.9216H44.2331C45.0099 50.9216 45.6393 50.292 45.6393 49.5154Z" fill="black"/>
<path d="M16.1797 56.9825H26.8072C27.584 56.9825 28.2135 56.3529 28.2135 55.5763C28.2135 54.7997 27.584 54.17 26.8072 54.17H16.1797C15.4029 54.17 14.7734 54.7997 14.7734 55.5763C14.7734 56.3529 15.4029 56.9825 16.1797 56.9825Z" fill="black"/>
<path d="M32.8682 54.17C32.0914 54.17 31.4619 54.7997 31.4619 55.5763C31.4619 56.3529 32.0914 56.9825 32.8682 56.9825H38.1943C38.9711 56.9825 39.6006 56.3529 39.6006 55.5763C39.6006 54.7997 38.9711 54.17 38.1943 54.17H32.8682Z" fill="black"/>
<path d="M94.5939 13.815C95.3707 13.815 96.0002 13.1854 96.0002 12.4088V6.70876C96.0002 3.00957 92.9906 0 89.2914 0H6.70876C3.00957 0 0 3.00957 0 6.70876V68.0776C0 71.7768 3.00957 74.7864 6.70876 74.7864H34.9759L34.0017 80.6321C33.6541 82.7171 32.446 84.5852 30.6876 85.7574L28.6351 87.1256H22.9988C21.388 87.1256 20.0775 88.437 20.0775 90.0487V93.0788C20.0775 94.6896 21.388 96 22.9988 96H73.0014C74.6122 96 75.9226 94.6896 75.9226 93.0788V90.0487C75.9226 88.437 74.6122 87.1256 73.0014 87.1256H67.3651L65.3126 85.7574C63.5542 84.5852 62.3463 82.7169 61.9987 80.6321L61.0242 74.7862H89.2914C92.9906 74.7862 96.0002 71.7766 96.0002 68.0774V18.9711C96.0002 18.1945 95.3707 17.5648 94.5939 17.5648C93.8171 17.5648 93.1877 18.1945 93.1877 18.9711V29.6091C91.7023 26.9513 89.6878 24.6282 87.287 22.7828V10.1194C87.287 7.88195 85.4668 6.06189 83.2293 6.06189H12.7706C10.5332 6.06189 8.71295 7.88214 8.71295 10.1194V37.8751C8.71295 38.6517 9.34239 39.2813 10.1192 39.2813C10.896 39.2813 11.5255 38.6517 11.5255 37.8751V20.9955H62.9446C56.134 24.8016 51.5183 32.0832 51.5183 40.424C51.5183 48.7647 56.1342 56.0463 62.9446 59.8524H11.5256V44.4376C11.5256 43.661 10.8962 43.0313 10.1194 43.0313C9.34258 43.0313 8.71314 43.661 8.71314 44.4376V59.8522H2.81251V6.70876C2.81251 4.56038 4.56038 2.81251 6.70876 2.81251H89.2914C91.4398 2.81251 93.1877 4.56038 93.1877 6.70876V12.4088C93.1877 13.1854 93.8171 13.815 94.5939 13.815ZM59.2244 81.0947C59.6124 83.4219 60.7856 85.5508 62.5119 87.1258H44.4957C43.7189 87.1258 43.0895 87.7554 43.0895 88.5321C43.0895 89.3087 43.7189 89.9383 44.4957 89.9383H73.0014C73.0614 89.9383 73.1101 89.988 73.1101 90.0489V93.0789C73.1101 93.1389 73.0614 93.1877 73.0014 93.1877H22.9988C22.9388 93.1877 22.89 93.1389 22.89 93.0789V90.0489C22.89 89.988 22.9388 89.9383 22.9988 89.9383H37.933C38.7098 89.9383 39.3393 89.3087 39.3393 88.5321C39.3393 87.7554 38.7098 87.1258 37.933 87.1258H33.4881C35.2144 85.5508 36.3874 83.4219 36.7756 81.0945L37.8271 74.7862H58.1729L59.2244 81.0947ZM93.1877 59.8522H87.2874V58.0644C89.688 56.2192 91.7023 53.896 93.1877 51.2382V59.8522ZM11.5256 18.183V10.1194C11.5256 9.43277 12.0842 8.87439 12.7708 8.87439H83.2295C83.9162 8.87439 84.4747 9.43296 84.4747 10.1194V18.1828H11.5256V18.183ZM54.331 40.4238C54.331 29.7109 63.0464 20.9954 73.7593 20.9954C84.4721 20.9954 93.1877 29.7109 93.1877 40.4238C93.1877 51.1366 84.4721 59.8522 73.7593 59.8522C63.0464 59.8522 54.331 51.1368 54.331 40.4238ZM93.1877 62.6647V68.0776C93.1877 70.226 91.4398 71.9739 89.2914 71.9739H6.70876C4.56038 71.9739 2.81251 70.226 2.81251 68.0776V62.6647H93.1877Z" fill="black"/>
<path d="M79.8202 12.1218H77.5474C76.7706 12.1218 76.1411 12.7515 76.1411 13.5281C76.1411 14.3047 76.7706 14.9343 77.5474 14.9343H79.8202C80.5971 14.9343 81.2265 14.3047 81.2265 13.5281C81.2265 12.7515 80.5971 12.1218 79.8202 12.1218Z" fill="black"/>
<path d="M71.4866 12.1218H69.2139C68.4371 12.1218 67.8076 12.7515 67.8076 13.5281C67.8076 14.3047 68.4371 14.9343 69.2139 14.9343H71.4866C72.2634 14.9343 72.8928 14.3047 72.8928 13.5281C72.8928 12.7515 72.2632 12.1218 71.4866 12.1218Z" fill="black"/>
<path d="M63.1523 12.1218H60.8794C60.1026 12.1218 59.4731 12.7515 59.4731 13.5281C59.4731 14.3047 60.1026 14.9343 60.8794 14.9343H63.1523C63.9291 14.9343 64.5585 14.3047 64.5585 13.5281C64.5585 12.7515 63.9291 12.1218 63.1523 12.1218Z" fill="black"/>
<path d="M28.6138 23.8651C27.837 23.8651 27.2075 24.4947 27.2075 25.2714V36.974C27.2075 37.7506 27.837 38.3803 28.6138 38.3803C29.3906 38.3803 30.02 37.7506 30.02 36.974V32.3283H35.3058V36.974C35.3058 37.7506 35.9353 38.3803 36.7121 38.3803C37.4889 38.3803 38.1184 37.7506 38.1184 36.974V25.2714C38.1184 24.4947 37.4889 23.8651 36.7121 23.8651C35.9353 23.8651 35.3058 24.4947 35.3058 25.2714V29.5158H30.02V25.2714C30.02 24.4947 29.3906 23.8651 28.6138 23.8651Z" fill="black"/>
<path d="M16.1797 38.3802C16.9565 38.3802 17.5859 37.7506 17.5859 36.9739V33.2894C18.2589 33.286 19.0108 33.2826 19.4383 33.2826C22.0702 33.2826 24.2116 31.1702 24.2116 28.5739C24.2116 25.9776 22.0702 23.8652 19.4383 23.8652H16.1797C15.4029 23.8652 14.7734 24.4949 14.7734 25.2715V36.9741C14.7734 37.7506 15.4029 38.3802 16.1797 38.3802ZM17.5859 26.6776H19.4383C20.5012 26.6776 21.3991 27.5459 21.3991 28.5737C21.3991 29.6016 20.5012 30.4699 19.4383 30.4699C19.0108 30.4699 18.26 30.4733 17.5859 30.4767V26.6776Z" fill="black"/>
<path d="M43.917 36.9739V33.2894C44.5899 33.286 45.3418 33.2826 45.7693 33.2826C48.4013 33.2826 50.5427 31.1702 50.5427 28.5739C50.5427 25.9776 48.4013 23.8652 45.7693 23.8652H42.5107C41.7339 23.8652 41.1045 24.4949 41.1045 25.2715V36.9741C41.1045 37.7508 41.7339 38.3804 42.5107 38.3804C43.2876 38.3804 43.917 37.7506 43.917 36.9739ZM43.917 26.6776H45.7693C46.8323 26.6776 47.7302 27.5459 47.7302 28.5737C47.7302 29.6016 46.8323 30.4699 45.7693 30.4699C45.3418 30.4699 44.5911 30.4733 43.917 30.4767V26.6776Z" fill="black"/>
<path d="M73.7589 34.6832C70.5937 34.6832 68.0186 37.2584 68.0186 40.4236C68.0186 43.5887 70.5937 46.1641 73.7589 46.1641C76.9241 46.1641 79.4992 43.5889 79.4992 40.4236C79.4992 37.2582 76.9241 34.6832 73.7589 34.6832ZM73.7589 43.3516C72.1445 43.3516 70.8311 42.0381 70.8311 40.4236C70.8311 38.809 72.1445 37.4957 73.7589 37.4957C75.3733 37.4957 76.6867 38.8092 76.6867 40.4236C76.6867 42.0379 75.3733 43.3516 73.7589 43.3516Z" fill="black"/>
<path d="M84.2477 45.2869C84.3827 44.997 84.5059 44.7004 84.616 44.4011L87.9462 44.0841C89.2309 43.9616 90.1997 42.8961 90.1997 41.6055V39.2419C90.1997 37.9513 89.2309 36.8857 87.946 36.7633L84.616 36.4462C84.5059 36.1472 84.3827 35.8507 84.2477 35.5605L86.379 32.9805C87.201 31.9856 87.1328 30.5469 86.22 29.6342L84.5487 27.9628C83.6359 27.0502 82.1976 26.9818 81.2023 27.8038L78.6223 29.9351C78.3325 29.8001 78.0358 29.6769 77.7366 29.5668L77.4195 26.2367C77.2969 24.9519 76.2313 23.9833 74.941 23.9833H72.5773C71.2866 23.9833 70.221 24.9521 70.0988 26.237L69.7815 29.5668C69.4824 29.6769 69.186 29.8001 68.8958 29.9351L66.3159 27.8038C65.3212 26.982 63.8824 27.0502 62.9696 27.9628L61.2982 29.6344C60.3857 30.5471 60.3174 31.9856 61.1392 32.9805L63.2706 35.5605C63.1357 35.8498 63.0126 36.1464 62.9023 36.4462L59.5721 36.7633C58.2872 36.8857 57.3184 37.9513 57.3184 39.2419V41.6055C57.3184 42.8961 58.2872 43.9616 59.5723 44.0841L62.9023 44.4011C63.0126 44.7011 63.1357 44.9976 63.2706 45.2869L61.1392 47.8669C60.3172 48.8618 60.3855 50.3005 61.2984 51.2132L62.9696 52.8844C63.882 53.7971 65.3207 53.8654 66.3159 53.0436L68.8958 50.9123C69.1858 51.0473 69.4824 51.1705 69.7815 51.2805L70.0988 54.6103C70.2208 55.8953 71.2866 56.8643 72.5773 56.8643H74.941C76.2313 56.8643 77.2967 55.8955 77.4195 54.6105L77.7366 51.2807C78.0358 51.1706 78.3325 51.0475 78.6223 50.9125L81.2023 53.0438C82.1974 53.866 83.6361 53.7977 84.5485 52.8848L86.22 51.2134C87.1326 50.3006 87.2009 48.8621 86.379 47.8673L84.2477 45.2869ZM81.9478 46.9187L84.0238 49.4319L82.7676 50.6884L80.2543 48.6122C79.504 47.9921 78.454 47.8673 77.5795 48.294C77.2671 48.4464 76.9429 48.5813 76.6157 48.6947C75.7 49.0123 75.0488 49.842 74.9565 50.8088L74.6477 54.0518H72.8708L72.5621 50.8093C72.4705 49.8424 71.8191 49.0125 70.9028 48.6947C70.5759 48.5814 70.2516 48.4466 69.939 48.2942C69.0653 47.8674 68.0151 47.9925 67.2641 48.6124L64.7511 50.6886L63.4948 49.4321L65.5706 46.9191C66.1909 46.1687 66.3159 45.1189 65.889 44.244C65.7369 43.9324 65.6021 43.6082 65.4883 43.2803C65.1709 42.3645 64.341 41.7133 63.3744 41.6211L60.1312 41.3122V39.5355L63.3746 39.2267C64.341 39.1344 65.1709 38.4832 65.4883 37.5677C65.6019 37.2396 65.7369 36.9154 65.8894 36.6034C66.3158 35.7289 66.1907 34.6792 65.5708 33.929L63.4948 31.4158L64.7511 30.1594L67.2643 32.2357C68.0151 32.8556 69.0651 32.9807 69.9386 32.5539C70.2516 32.4013 70.5758 32.2665 70.903 32.153C71.8191 31.8354 72.4703 31.0054 72.562 30.039L72.8708 26.796H74.6477L74.9565 30.0392C75.0486 31.0057 75.7 31.8356 76.6159 32.153C76.9429 32.2663 77.2671 32.4011 77.5795 32.5535C78.454 32.9807 79.504 32.8554 80.2543 32.2354L82.7676 30.1592L84.0238 31.4156L81.948 33.9287C81.3276 34.6792 81.2025 35.7294 81.6293 36.6032C81.7819 36.9161 81.9169 37.2407 82.0303 37.5675C82.3478 38.4832 83.1777 39.1344 84.1442 39.2267L87.3872 39.5355V41.3122L84.144 41.6211C83.1777 41.7133 82.3478 42.3645 82.0303 43.2801C81.9171 43.6071 81.7821 43.9314 81.6297 44.244C81.2025 45.1181 81.3276 46.1681 81.9478 46.9187Z" fill="black"/>
</svg>
