<svg width="98" height="96" viewBox="0 0 98 96" fill="none" xmlns="http://www.w3.org/2000/svg">
<path d="M97.0283 40.85L80.4391 12.1062C80.0447 11.4223 79.1703 11.1887 78.4872 11.5831C77.804 11.9775 77.5696 12.8511 77.964 13.5343L94.5524 42.2773C94.7273 42.5817 94.7273 42.9582 94.5524 43.2618L79.8869 68.6747C79.3943 67.4989 78.4522 66.556 77.2764 66.0633L90.0353 43.9532C90.455 43.2239 90.455 42.3167 90.0345 41.5852L70.43 7.61291C70.0088 6.88064 69.2222 6.42595 68.3761 6.42595H29.1648C28.3186 6.42595 27.5313 6.88064 27.1116 7.61142L7.50481 41.5874C7.0851 42.3167 7.0851 43.2239 7.50556 43.9547L15.7235 58.1952C16.1179 58.8791 16.9916 59.1135 17.6747 58.7191C18.3586 58.3247 18.593 57.451 18.1986 56.7671L10.1213 42.7699L29.4461 9.28358H68.0948L87.4187 42.7699L74.1948 65.6883H23.3461L21.3755 62.2725C20.9803 61.5894 20.1067 61.355 19.4235 61.7494C18.7396 62.1438 18.5052 63.0174 18.8996 63.7013L20.2629 66.0633C19.0871 66.5567 18.145 67.4989 17.6524 68.6747L2.98693 43.2618C2.81205 42.9582 2.81205 42.5817 2.98693 42.278L25.4543 3.34879C25.6292 3.04591 25.9551 2.85763 26.3049 2.85763H71.2352C71.5849 2.85763 71.9109 3.04591 72.0858 3.34879L75.0982 8.56917C75.4926 9.25307 76.367 9.48599 77.0502 9.09232C77.7333 8.69791 77.9677 7.82425 77.5733 7.1411L74.5609 1.92146C73.8777 0.735989 72.6037 0 71.2352 0H26.3042C24.9364 0 23.6616 0.735989 22.9792 1.92071L0.511806 40.85C-0.170602 42.0347 -0.170602 43.5052 0.511806 44.6899L17.2773 73.7425V91.1428C17.2773 93.8211 19.4563 96 22.1353 96H61.3436C62.1332 96 62.7724 95.3608 62.7724 94.5712C62.7724 93.7824 62.1332 93.1424 61.3436 93.1424H22.1353C21.0324 93.1424 20.1357 92.2456 20.1357 91.1428V73.3503C20.1357 73.3384 20.1357 73.3265 20.1357 73.3146V70.5455C20.1357 69.4426 21.0324 68.5459 22.1353 68.5459H22.5081C22.5133 68.5459 22.5178 68.5467 22.523 68.5467C22.5275 68.5467 22.5327 68.5459 22.5371 68.5459H75.0029C75.0074 68.5459 75.0126 68.5467 75.0178 68.5467C75.0223 68.5467 75.0267 68.5459 75.032 68.5459H75.4048C76.5077 68.5459 77.4051 69.4426 77.4051 70.5455V73.3146C77.4044 73.3265 77.4051 73.3384 77.4051 73.3503V91.1428C77.4051 92.2456 76.5077 93.1424 75.4048 93.1424H67.6304C66.8416 93.1424 66.2016 93.7824 66.2016 94.5712C66.2016 95.3608 66.8416 96 67.6304 96H75.4048C78.0831 96 80.2628 93.8211 80.2628 91.1428V73.7425L97.0283 44.6899C97.7107 43.5059 97.7107 42.0347 97.0283 40.85Z" fill="black"/>
<path d="M34.7781 80.5011C35.2908 79.7777 35.5476 78.8237 35.5476 77.6382C35.5476 74.6169 33.8352 73.1055 30.4105 73.1055H26.1181C25.8584 73.1055 25.6419 73.1918 25.4677 73.3659C25.2943 73.5393 25.208 73.7417 25.208 73.9732V88.0693C25.208 88.3447 25.3487 88.5612 25.6307 88.7205C25.9127 88.8797 26.2409 88.9586 26.6167 88.9586C27.0074 88.9586 27.3393 88.8797 27.6139 88.7205C27.8885 88.5612 28.0262 88.3447 28.0262 88.0693V82.4091H29.8472L32.9251 88.3945C33.1558 88.8433 33.481 89.0673 33.9007 89.0673C34.3197 89.0673 34.7171 88.9125 35.0929 88.6007C35.4687 88.2903 35.6562 87.954 35.6562 87.5923C35.6562 87.4479 35.6198 87.3319 35.5476 87.2455L32.7078 81.9753C33.5748 81.7148 34.2654 81.2237 34.7781 80.5011ZM30.4105 80.1975H28.0262V75.5776H30.4105C31.9569 75.5776 32.7301 76.3516 32.7301 77.8987C32.7301 79.431 31.9562 80.1975 30.4105 80.1975Z" fill="black"/>
<path d="M43.8937 84.5346C44.1973 84.5346 44.4429 84.5204 44.6304 84.4914C44.8187 84.4631 45.0241 84.391 45.2488 84.2763C45.4721 84.1625 45.6388 83.9653 45.7474 83.6862C45.8553 83.4064 45.9097 83.0529 45.9097 82.6228C45.9097 81.4463 45.4728 80.4699 44.5984 79.693C43.724 78.9161 42.6725 78.5269 41.4439 78.5269C40.1289 78.5269 39.0089 78.954 38.0847 79.8068C37.1597 80.6597 36.6968 81.6792 36.6968 82.8646V84.708C36.6968 86.0386 37.185 87.1124 38.1598 87.9288C39.1354 88.7459 40.3961 89.1537 41.9425 89.1537C43.0267 89.1537 43.9331 88.9557 44.6632 88.5576C45.3925 88.1602 45.7578 87.7591 45.7578 87.3543C45.7578 87.0938 45.6566 86.8229 45.4542 86.5409C45.2518 86.2588 44.9995 86.1174 44.6959 86.1174C44.5367 86.1174 44.1899 86.2551 43.6556 86.5297C43.1205 86.8043 42.5787 86.942 42.0295 86.942C41.2638 86.942 40.6491 86.75 40.187 86.3667C39.7248 85.9842 39.4934 85.4819 39.4934 84.8598V84.5346H43.8937ZM39.4934 82.3192C39.4934 81.8466 39.6809 81.4656 40.0567 81.1746C40.4325 80.8844 40.8731 80.7393 41.3791 80.7393C41.9134 80.7393 42.3652 80.8881 42.7335 81.185C43.1019 81.482 43.2864 81.8667 43.2864 82.3393C43.2864 82.5558 43.2396 82.7009 43.1458 82.7753C43.0513 82.8498 42.8891 82.8862 42.6576 82.8862H39.4926V82.3192H39.4934Z" fill="black"/>
<path d="M53.4418 88.6804C53.6799 88.8664 53.9798 88.9587 54.3415 88.9587C54.7314 88.9587 55.0566 88.8724 55.3171 88.699C55.5768 88.5256 55.7071 88.3157 55.7071 88.0694V82.756C55.7071 81.5415 55.3238 80.5331 54.5581 79.7309C53.7923 78.9287 52.6217 78.5276 51.0463 78.5276C50.2225 78.5276 49.4389 78.6831 48.6947 78.9934C47.9498 79.3045 47.5784 79.6699 47.5784 80.0889C47.5784 80.4357 47.6648 80.7542 47.8382 81.0429C48.0115 81.3324 48.243 81.4768 48.5317 81.4768C48.6039 81.4768 48.8718 81.354 49.3339 81.1084C49.7968 80.8621 50.3527 80.7393 51.0031 80.7393C51.6535 80.7393 52.1335 80.9439 52.4446 81.3525C52.7557 81.7618 52.9104 82.241 52.9104 82.7917V83.0812H52.0219C50.3884 83.0812 49.139 83.3134 48.272 83.777C47.405 84.2414 46.9712 85.0421 46.9712 86.1799C46.9712 87.1496 47.2346 87.8871 47.7622 88.3939C48.2899 88.9006 48.9656 89.1537 49.7894 89.1537C50.9882 89.1537 52.0866 88.5479 53.0838 87.3356V88.0076C53.0838 88.2711 53.2029 88.4951 53.4418 88.6804ZM52.9104 84.9669C52.9104 85.4611 52.6939 85.9135 52.26 86.325C51.8269 86.7366 51.3789 86.942 50.9161 86.942C50.5693 86.942 50.291 86.8497 50.0818 86.6644C49.872 86.4791 49.7678 86.2015 49.7678 85.8309C49.7678 85.31 50.0171 84.9632 50.515 84.792C51.0135 84.6201 51.7041 84.5346 52.5852 84.5346H52.9104V84.9669Z" fill="black"/>
<path d="M64.5297 86.0527C64.4136 86.0527 64.1464 86.1576 63.7274 86.3675C63.3085 86.5773 62.853 86.6815 62.3619 86.6815C60.9457 86.6815 60.2373 86.0214 60.2373 84.7013V82.9793C60.2373 81.6598 60.9383 80.9997 62.3403 80.9997C62.8315 80.9997 63.2906 81.0972 63.717 81.2922C64.1427 81.4872 64.3994 81.5847 64.4865 81.5847C64.7894 81.5847 65.0498 81.4329 65.2664 81.1292C65.483 80.8256 65.5916 80.522 65.5916 80.2184C65.5916 79.7853 65.259 79.3946 64.5944 79.0478C63.9299 78.701 63.1061 78.5269 62.1238 78.5269C60.5625 78.5269 59.3919 78.9362 58.612 79.7525C57.8314 80.5696 57.4414 81.6427 57.4414 82.9733V84.708C57.4414 86.0527 57.8314 87.1295 58.612 87.9392C59.3919 88.7488 60.5699 89.1537 62.1453 89.1537C63.1276 89.1537 63.9693 88.9691 64.6703 88.6007C65.3713 88.2324 65.7218 87.8238 65.7218 87.3758C65.7218 87.0715 65.6095 86.776 65.3855 86.4865C65.1615 86.1978 64.8765 86.0527 64.5297 86.0527Z" fill="black"/>
<path d="M69.5475 74.4733C69.2654 74.3133 68.9365 74.2336 68.5615 74.2336C68.2147 74.2336 67.8962 74.3155 67.6074 74.48C67.3179 74.6444 67.1743 74.8483 67.1743 75.0909V85.4863C67.1743 87.8014 68.5109 88.9586 71.1839 88.9586H72.0301C72.4051 88.9586 72.6983 88.8381 72.9074 88.5962C73.1173 88.3536 73.2215 88.0589 73.2215 87.7114C73.2215 87.3787 73.1166 87.0915 72.9074 86.8496C72.6976 86.6078 72.4051 86.4865 72.0301 86.4865H71.1839C70.7359 86.4865 70.4219 86.4039 70.2411 86.2387C70.0602 86.0735 69.9702 85.7914 69.9702 85.3918V80.8694H72.5279C72.7452 80.8694 72.9186 80.7601 73.0481 80.5405C73.1783 80.3202 73.2431 80.062 73.2431 79.7636C73.2431 79.4659 73.1783 79.207 73.0481 78.9874C72.9179 78.7679 72.7445 78.6578 72.5279 78.6578H69.9702V75.0679C69.9702 74.8312 69.8295 74.6333 69.5475 74.4733Z" fill="black"/>
<path d="M48.7702 42.9546C51.2818 42.9546 53.3245 40.9111 53.3245 38.3987C53.3245 35.8864 51.2818 33.8429 48.7702 33.8429C46.2586 33.8429 44.2158 35.8864 44.2158 38.3987C44.2158 40.9111 46.2586 42.9546 48.7702 42.9546ZM48.7702 36.7005C49.7056 36.7005 50.4669 37.4618 50.4669 38.3987C50.4669 39.3349 49.7056 40.0969 48.7702 40.0969C47.8347 40.0969 47.0735 39.3349 47.0735 38.3987C47.0735 37.4618 47.8347 36.7005 48.7702 36.7005Z" fill="black"/>
<path d="M24.8359 38.3988C24.8359 41.5444 27.4874 44.3938 32.3015 46.4232C32.7986 46.6323 33.3158 46.8295 33.8479 47.0178C33.7445 47.5722 33.6566 48.1199 33.5897 48.655C32.9385 53.8404 34.0801 57.5627 36.803 59.1352C37.6878 59.6464 38.6865 59.8994 39.7738 59.8994C42.0308 59.8994 44.6727 58.8092 47.4827 56.6794C47.912 56.3534 48.3414 56.0037 48.7701 55.6376C49.1987 56.0037 49.6274 56.3534 50.0575 56.6794C52.8675 58.81 55.5086 59.8994 57.7664 59.8994C58.8536 59.8994 59.8523 59.6464 60.7371 59.1352C63.4601 57.5627 64.6009 53.8404 63.9505 48.655C63.8835 48.1199 63.7957 47.5722 63.6923 47.0178C64.2243 46.8295 64.7416 46.6323 65.2387 46.4232C70.0527 44.3938 72.7042 41.5444 72.7042 38.3988C72.7042 35.2531 70.0527 32.4037 65.2387 30.3743C64.7416 30.1652 64.2243 29.968 63.6923 29.7797C63.7957 29.2246 63.8835 28.6776 63.9505 28.1425C64.6009 22.9564 63.4601 19.2348 60.7371 17.6623C58.0142 16.0891 54.2212 16.9613 50.0575 20.1181C49.6274 20.4441 49.198 20.7938 48.7701 21.1599C48.3414 20.7938 47.912 20.4441 47.4827 20.1181C43.3183 16.9613 39.5252 16.0891 36.8023 17.6623C34.0793 19.2348 32.9385 22.9564 33.5889 28.1425C33.6559 28.6776 33.7437 29.2246 33.8471 29.7797C33.3158 29.968 32.7979 30.1652 32.3015 30.3743C27.4874 32.4037 24.8359 35.2531 24.8359 38.3988ZM38.2318 56.6608C36.451 55.6316 35.8229 52.3513 36.5991 47.8565C38.4923 48.3506 40.5336 48.7234 42.6701 48.969C43.9501 50.697 45.2933 52.2791 46.6678 53.6722C46.3642 53.9259 46.0598 54.1715 45.7562 54.4022C42.6143 56.7843 39.872 57.6074 38.2318 56.6608ZM38.2415 34.9049C37.8382 33.8094 37.4996 32.7475 37.2227 31.728C38.243 31.4586 39.3317 31.2212 40.4815 31.0225C40.0856 31.6491 39.6978 32.2891 39.3213 32.9417C38.9455 33.5936 38.5853 34.2485 38.2415 34.9049ZM41.7964 34.3698C42.5696 33.031 43.3875 31.7503 44.2381 30.5373C45.6818 30.41 47.1954 30.3416 48.7701 30.3416C50.3448 30.3416 51.8591 30.4108 53.3028 30.5373C54.1527 31.7503 54.9713 33.031 55.7437 34.3698C56.5318 35.7361 57.2299 37.083 57.8423 38.3988C57.2299 39.7145 56.5318 41.0614 55.7437 42.4277C54.9713 43.7665 54.1527 45.0479 53.3028 46.2602C51.8591 46.3875 50.3448 46.4559 48.7701 46.4559C47.1954 46.4559 45.6818 46.3867 44.2381 46.2602C43.3875 45.0479 42.5696 43.7665 41.7964 42.4277C41.0083 41.0614 40.3103 39.7145 39.6978 38.3988C40.3103 37.083 41.0083 35.7361 41.7964 34.3698ZM48.7701 25.0609C49.5269 25.8237 50.2763 26.6475 51.0108 27.5301C50.2703 27.4996 49.5232 27.4839 48.7701 27.4839C48.0177 27.4839 47.2698 27.4996 46.5301 27.5301C47.2639 26.6475 48.0133 25.8237 48.7701 25.0609ZM58.2189 32.9417C57.8423 32.2891 57.4546 31.6491 57.0587 31.0225C58.2084 31.2212 59.2979 31.4586 60.3174 31.7287C60.0413 32.7475 59.702 33.8094 59.2994 34.9049C58.9549 34.2485 58.5947 33.5936 58.2189 32.9417ZM59.2994 41.8926C59.702 42.9888 60.0406 44.0508 60.3174 45.0695C59.2979 45.3389 58.2092 45.5763 57.0587 45.775C57.4546 45.1484 57.8423 44.5084 58.2189 43.8558C58.5947 43.2039 58.9549 42.549 59.2994 41.8926ZM48.7701 51.7366C48.0133 50.9738 47.2639 50.15 46.5301 49.2674C47.2706 49.2972 48.0177 49.3136 48.7701 49.3136C49.5232 49.3136 50.2703 49.2972 51.0108 49.2674C50.2763 50.15 49.5269 50.9738 48.7701 51.7366ZM39.3213 43.8558C39.6978 44.5084 40.0856 45.1484 40.4815 45.775C39.3317 45.5763 38.243 45.3389 37.2227 45.0688C37.4988 44.05 37.8382 42.9888 38.2415 41.8926C38.5853 42.549 38.9455 43.2039 39.3213 43.8558ZM59.3083 56.6608C57.6689 57.6074 54.9259 56.7843 51.784 54.4022C51.4804 54.1715 51.1767 53.9259 50.8724 53.6722C52.2461 52.2791 53.5901 50.697 54.8701 48.969C57.0073 48.7234 59.0479 48.3506 60.9411 47.8565C61.718 52.3513 61.0891 55.6316 59.3083 56.6608ZM69.8466 38.3988C69.8466 40.4564 67.3216 42.6413 63.0433 44.216C62.5239 42.328 61.8266 40.373 60.9701 38.3988C61.8266 36.4245 62.5239 34.4695 63.0433 32.5815C67.3216 34.1562 69.8466 36.3411 69.8466 38.3988ZM59.3083 20.1367C61.0891 21.1659 61.718 24.4462 60.9411 28.941C59.0479 28.4469 57.0073 28.0741 54.8701 27.8285C53.5901 26.1005 52.2469 24.5184 50.8724 23.1253C51.1767 22.8715 51.4804 22.626 51.784 22.3953C54.9266 20.0132 57.6689 19.1901 59.3083 20.1367ZM38.2318 20.1367C38.6783 19.8792 39.2052 19.7527 39.7998 19.7527C41.3923 19.7527 43.4686 20.6614 45.7562 22.3953C46.0598 22.626 46.3642 22.8715 46.6678 23.1253C45.294 24.5184 43.9501 26.1005 42.6701 27.8285C40.5336 28.0741 38.4923 28.4469 36.5991 28.941C35.8229 24.4462 36.451 21.1659 38.2318 20.1367ZM36.5701 38.3988C35.7135 40.373 35.0162 42.328 34.4968 44.216C30.2193 42.6413 27.6943 40.4564 27.6943 38.3988C27.6943 36.3411 30.2193 34.1562 34.4968 32.5815C35.0162 34.4695 35.7135 36.4245 36.5701 38.3988Z" fill="black"/>
</svg>
