<svg width="879" height="220" viewBox="0 0 879 220" fill="none" xmlns="http://www.w3.org/2000/svg">
<path d="M62.25 0L54.75 3.75L51 9.75C46.4793 10.0672 43.8172 12.7293 43.5 17.25L36 24.75L32.2905 40.5295L33.75 62.25C37.0416 64.3144 39.4914 70.4308 39.75 74.25C43.8136 76.101 50.6493 82.9365 52.5 87C59.4422 87.4702 65.63 92.967 72.75 94.2188C89.5028 97.1633 108.986 94.5 126 94.5C133.054 94.5 147.681 91.728 153 96.75C161.635 96.2677 168.95 100.088 176.31 104.036C179.568 105.783 182.834 105.882 184.5 109.5H188.25C189.704 113.909 195.243 116.892 198.143 120.502C206.325 130.688 218.185 149.013 216 162.75L220.5 164.25C224.558 154.023 222 139.279 222 128.25C222 105.018 222.528 81.7185 222.218 58.5C222.148 53.255 220.323 48.7301 220.5 43.5H218.25C218.25 40.8671 218.99 38.1408 216 37.5C216.622 35.4395 216.741 34.5 214.5 34.5C214.808 30.6915 212.496 29.4115 210.779 26.3102C206.636 18.8257 194.771 7.2474 186 6L186.75 3.75C183.512 3.53978 178.813 2.80266 177 0C139.407 1.93707 99.852 1.78464 62.25 0Z" fill="#FF8D54"/>
<path d="M65 0.250005L65.4999 0.499995L65 0.250005ZM174 0L174.75 0.75L174 0Z" fill="#FF7F52"/>
<path d="M177 0L177.75 0.75L177 0Z" fill="#FF0101"/>
<path d="M175 1.25L175.25 1.75001L175 1.25Z" fill="#FF7F52"/>
<path d="M52.75 6.50003L53.0001 6.99998L52.75 6.50003ZM190.5 7.50001V8.25001L192 9.75001H192.75L190.5 7.50001Z" fill="#FF7F52"/>
<path d="M196 10.25L196.25 10.75L196 10.25ZM222.25 10.25L222.5 10.75L222.25 10.25ZM227.5 10.25L227.75 10.75L227.5 10.25Z" fill="white"/>
<path d="M199.5 14.25L200.25 15L199.5 14.25ZM200.25 15L201 17.25H201.75V15H200.25ZM203.25 17.25L204.75 21H205.5L203.25 17.25ZM40.25 19L40.75 19.25L40.25 19Z" fill="#FF7F52"/>
<path d="M207 21L207.75 21.75L207 21Z" fill="white"/>
<path d="M207 21.75L207.75 22.5L207 21.75ZM37.5 24.75H38.25L39.75 23.25C38.1452 22.4117 37.8549 23.0619 37.5 24.75Z" fill="#FF7F52"/>
<path d="M208.5 22.5L209.25 23.25L208.5 22.5ZM210.75 24.75L211.5 25.5L210.75 24.75Z" fill="white"/>
<path d="M210.75 25.5V28.5H211.5L210.75 25.5Z" fill="#FF7F52"/>
<path d="M212.25 28.5L213 29.25L212.25 28.5ZM33.75 30L34.5 30.75L33.75 30Z" fill="white"/>
<path d="M214.5 30L215.25 30.75L214.5 30Z" fill="#FF0101"/>
<path d="M214.75 31.25L215 31.75L214.75 31.25ZM214.75 33.5L215 34L214.75 33.5Z" fill="#FF7F52"/>
<path d="M216 33.75L216.75 34.5L216 33.75Z" fill="white"/>
<path d="M216 36.75L216.75 37.5L216 36.75Z" fill="#FF7F52"/>
<path d="M0 56.25V57L3.75 58.5C4.67599 56.0436 1.8742 56.2811 0 56.25Z" fill="#FF7F52"/>
<path d="M0 57V168C2.4731 168 1.71431 171.964 1.5 174L8.25 185.25L11.25 194.25L15.75 196.5L15 198L18.75 201.75L22.5 205.5L36 215.25L39.75 214.5C41.1696 221.125 60.5382 219 66 219V216.75H54.75V214.5L43.5 213V210.75L34.5 209.25V207H30.75L24.75 201.75C24.607 197.438 21.5001 193.193 17.25 192L15.75 184.5H13.5L12 180.75V180V179.25L13.5 177H18.75C19.8779 180.421 23.525 183.625 27 184.5L19.5 175.5L30.75 183L24.75 176.25L27 175.5V171.75L30 173.25V174V174.75C27.6104 176.497 30.1405 178.674 32.25 179.25L30.75 177V176.25V175.5L32.25 173.25H36L33.75 174.75V177L36 177.75L32.25 183L38.25 179.25V177L36 176.25L39.75 169.5L41.25 171.75L47.25 174L45 174.75V177L49.5 179.25L47.25 176.25L49.5 175.5V173.25L47.25 172.5L49.5 169.5H52.5V173.25V174V174.75L51 177C53.0046 176.531 55.6493 175.003 53.25 173.25V172.5V171.75C54.7544 170.905 54.7544 170.345 53.25 169.5V168.75V168L55.5 165.75L56.25 168L63.75 171.75V172.5V173.25C61.3507 175.003 63.9954 176.531 66 177L64.5 174.75V174V173.25C66.0044 172.405 66.0044 171.845 64.5 171V170.25V169.5L66 167.25L63 169.5L60.75 165.75L64.5 164.25H65.25H66C68.2052 168.077 76.047 164.967 78 162L78.75 164.25H81V162H84.75C81.8138 165.447 80.277 167.415 84.75 170.25L82.5 173.25L87 171.75V169.5L83.25 167.25V166.5V165.75L87 164.25V162L84.75 160.5L90 162V162.75V163.5L86.25 168C88.4047 167.423 93.6472 164.117 90.75 162V161.25V160.5L92.25 156.75L96 159L93.75 159.75V162L96 162.75L88.5 171.75L98.25 164.25V162L96 161.25L98.25 158.25L102 156.75H102.75H103.5L105 158.25V159V159.75L102.75 162L99.75 159.75L101.25 162V162.75V163.5L96 169.5C102.973 167.544 106.538 160.725 105.75 154.5L107.25 156.75H111L108.75 158.25V160.5L113.25 162.75L111 165.75L115.5 164.25V162L111 159L113.25 158.25V156L111 154.5L117 156.75L115.5 153L120.75 150.75L118.5 154.5V156.75L120.75 157.5L118.5 159.75H117.75H117L114.75 158.25C116.606 163.84 119.82 159.948 123 158.25V156L120.75 155.25L125.25 150.75L126 153H129.75V156.75V157.5V158.25C127.351 160.003 129.995 161.531 132 162L130.5 159.75V159V158.25C132.005 157.405 132.005 156.845 130.5 156V155.25V154.5V150.75L134.25 149.25H135H135.75L138 150.75V147L139.5 149.25L144.75 150.75V151.5V152.25L139.5 158.25C146.091 156.4 147.253 151.699 143.25 147H148.5L150.75 150L148.5 150.75V153L152.25 154.5V155.25V156L150.75 158.25C155.378 156.944 153.898 153.734 150.75 151.5L153 150.75V148.5L150.75 147.75L155.25 143.25L156 145.5H162V143.25L165.75 141.75H166.5H167.25C168.095 143.255 168.655 143.255 169.5 141.75H170.25H171L173.25 144L171 147L173.25 145.5H174H174.75L177 147C177.198 149.946 177.807 152.023 180.75 153C180.948 155.946 181.557 158.023 184.5 159L183 165.75C187.787 168.685 186.596 183.182 182.25 186L183 190.5H180.75L178.5 194.25L179.25 198L161.292 210.916L156 215.25L150.75 214.5V216.75H141V219H158.25V216.75C160.495 216.702 161.51 216.79 162 214.5L165.75 215.25C167.054 212.359 168.576 211.372 171.75 211.5L171 209.25L184.5 196.5L188.25 180.75L189.75 181.5C189.75 174.92 191.999 160.323 186 156C186.198 153.026 185.356 149.408 182.25 148.5C181.962 144.409 178.631 140.762 174.75 139.5L175.5 135.75C171.361 135.432 169.659 132.866 167.25 129.75L164.25 130.5L159.75 126L147 124.5V122.25L66 123V120.75L60.75 122.25H60L58.5 118.5L53.25 119.25L48.75 114.75C45.1721 114.857 43.4699 113.741 41.25 111L38.25 111.75C37.6446 108.925 35.4812 109.962 33.5416 108.208C29.2118 104.294 19.9071 96.7043 19.5 90.75H16.5L15 88.5L15.75 85.5L13.5 81H11.25L12 78L9.75 73.5L6 58.5L0 57Z" fill="#FF8D54"/>
<path d="M33.75 62.25L34.5 63L33.75 62.25Z" fill="#FF0101"/>
<path d="M35 62.5L35.5 62.75L35 62.5Z" fill="white"/>
<path d="M7.5 66L8.25 66.75L7.5 66ZM36.5 66.25L37 66.5L36.5 66.25Z" fill="#FF7F52"/>
<path d="M37.5 68.25L39.75 70.5V69.75L37.5 68.25Z" fill="#FF7F52"/>
<path d="M6.50003 70L6.99998 70.25L6.50003 70ZM7.74998 71L8.00003 71.5L7.74998 71Z" fill="#FF7F52"/>
<path d="M8.25 73.5L9 74.25L8.25 73.5Z" fill="white"/>
<path d="M41.5 74.7503L41.75 75.2498L41.5 74.7503Z" fill="#FF7F52"/>
<path d="M10.25 77.4997L10.75 77.7502L10.25 77.4997Z" fill="white"/>
<path d="M11.25 77.25L12 78L11.25 77.25Z" fill="#FF7F52"/>
<path d="M11.5 80.0003L11.75 80.4998L11.5 80.0003Z" fill="#FF7F52"/>
<path d="M12 81L12.75 81.75L12 81Z" fill="white"/>
<path d="M14 84.9997L14.5 85.2502L14 84.9997Z" fill="white"/>
<path d="M15.25 87.5002L15.5 87.9998L15.25 87.5002ZM56.25 87L58.5 89.25V88.5L56.25 87ZM16.25 88.7498L16.75 89.0002L16.25 88.7498Z" fill="#FF7F52"/>
<path d="M60.25 89.7503L60.5001 90.2498L60.25 89.7503Z" fill="#FF7F52"/>
<path d="M16.5 90L17.25 90.75L16.5 90Z" fill="#FF7F52"/>
<path d="M17.25 90V90.75H19.5L17.25 90Z" fill="white"/>
<path d="M63.75 92.25L64.5 93L63.75 92.25Z" fill="#FF0101"/>
<path d="M66.75 92.25L67.5 93L66.75 92.25Z" fill="#FF7F52"/>
<path d="M20 93.9998L20.5 94.2502L20 93.9998ZM73.5 93.75L74.25 94.5L73.5 93.75Z" fill="#FF7F52"/>
<path d="M167.25 98.25L169.5 100.5V99.75L167.25 98.25Z" fill="#FF7F52"/>
<path d="M26.25 99.75L27 100.5L26.25 99.75Z" fill="white"/>
<path d="M30 103.5L30.75 104.25L30 103.5Z" fill="#FF7F52"/>
<path d="M174.75 103.5L175.5 104.25L174.75 103.5Z" fill="white"/>
<path d="M263.25 103.5L264 104.25L263.25 103.5ZM182.25 105.75L184.5 108V107.25L182.25 105.75Z" fill="#FF7F52"/>
<path d="M32.25 107.25V108L33.75 109.5H34.5L32.25 107.25Z" fill="#FF7F52"/>
<path d="M38.75 111.25L39.25 111.5L38.75 111.25ZM41.25 111L42 111.75L41.25 111ZM190 112.25L190.25 112.75L190 112.25Z" fill="#FF7F52"/>
<path d="M46.25 115L46.7499 115.25L46.25 115ZM48.75 114.75L49.5 115.5L48.75 114.75ZM192.5 115L193 115.25L192.5 115ZM193.75 116L194 116.5L193.75 116ZM53.75 118.75L54.2499 119L53.75 118.75Z" fill="#FF7F52"/>
<path d="M58.5 118.5L59.25 119.25L58.5 118.5Z" fill="#FF0101"/>
<path d="M58.75 119.75L59.0001 120.25L58.75 119.75Z" fill="white"/>
<path d="M197.5 119.75L197.75 120.25L197.5 119.75ZM60.25 121.25L60.5001 121.75L60.25 121.25Z" fill="#FF7F52"/>
<path d="M66.25 121.25L66.5001 121.75L66.25 121.25Z" fill="white"/>
<path d="M213 120.75V122.25H214.5V120.75H213Z" fill="#FF7F52"/>
<path d="M66 122.25V123H69.75L66 122.25Z" fill="#FF7F52"/>
<path d="M69.75 122.25L70.5 123L69.75 122.25Z" fill="white"/>
<path d="M199.5 123L201 125.25L199.5 123Z" fill="white"/>
<path d="M199.5 124.5L200.25 125.25L199.5 124.5Z" fill="#FF0101"/>
<path d="M213 124.5V126H214.5V124.5H213Z" fill="#FF7F52"/>
<path d="M201 125.25L203.25 126.75V126L201 125.25Z" fill="white"/>
<path d="M157.25 126.25L157.75 126.5L157.25 126.25Z" fill="#FF7F52"/>
<path d="M159.75 126L160.5 126.75L159.75 126Z" fill="white"/>
<path d="M203.75 128.5L204.25 128.75L203.75 128.5Z" fill="#FF7F52"/>
<path d="M164.75 130L165.25 130.25L164.75 130Z" fill="#FF7F52"/>
<path d="M167.25 129.75L168 130.5L167.25 129.75Z" fill="white"/>
<path d="M205 131L205.25 131.5L205 131Z" fill="white"/>
<path d="M214.5 130.5V133.5H216V130.5H214.5Z" fill="#FF7F52"/>
<path d="M169.75 132.5L170 133L169.75 132.5ZM206 132.25L206.5 132.5L206 132.25Z" fill="white"/>
<path d="M170.25 133.5L171 135.75H171.75V133.5H170.25ZM207.75 133.5L208.5 134.25L207.75 133.5ZM150.75 134.25L149.25 137.25L152.25 134.25H150.75ZM156.75 134.25V135.75H158.25V134.25H156.75Z" fill="#FF7F52"/>
<path d="M207 134.25L208.5 136.5L207 134.25Z" fill="white"/>
<path d="M138 135.75V137.25H139.5V135.75H138ZM145.5 135.75V137.25H147V135.75H145.5ZM154.5 135.75V137.25H156V135.75H154.5Z" fill="#FF7F52"/>
<path d="M207 135.75L207.75 136.5L207 135.75Z" fill="#FF0101"/>
<path d="M215.25 135.75L214.5 137.25H216L215.25 135.75Z" fill="#FF7F52"/>
<path d="M174.75 136.5L175.5 137.25L174.75 136.5Z" fill="white"/>
<path d="M208.5 136.5L209.25 137.25L208.5 136.5ZM209.75 137.5L210.25 137.75L209.75 137.5ZM130.5 138L133.5 141L130.5 138ZM135.75 138V139.5H137.25V138H135.75ZM141.75 138V139.5H143.25V138H141.75ZM150.75 138L149.25 141L152.25 138H150.75ZM156.75 138V139.5H158.25V138H156.75ZM160.5 138L163.5 141L160.5 138ZM164.25 138V139.5H165.75V138H164.25ZM175 138.5L175.25 139L175 138.5Z" fill="#FF7F52"/>
<path d="M208.75 138.5L209 139L208.75 138.5Z" fill="white"/>
<path d="M126.75 139.5V141H128.25V139.5H126.75ZM139.5 139.5V141H141V139.5H139.5ZM145.5 139.5V141H147V139.5H145.5ZM154.5 139.5V141H156V139.5H154.5ZM177.25 140L177.5 140.5L177.25 140Z" fill="#FF7F52"/>
<path d="M209.75 139.75L210.25 140L209.75 139.75Z" fill="white"/>
<path d="M177.75 141L178.5 143.25H179.25V141H177.75ZM211.5 141L212.25 141.75L211.5 141ZM119.25 141.75V143.25H120.75V141.75H119.25ZM123 141.75L126 144.75L123 141.75ZM128.25 141.75V143.25H129.75V141.75H128.25ZM134.25 141.75V143.25H135.75V141.75H134.25ZM138 141.75L141 144.75L138 141.75ZM143.25 141.75V143.25H144.75V141.75H143.25ZM150.75 141.75L149.25 147H150.75L152.25 141.75H150.75ZM156.75 141.75V143.25H158.25V141.75H156.75ZM160.5 141.75V143.25H162V141.75H160.5ZM165.75 141.75L162 143.25V145.5L155.25 143.25L150.75 147.75L153 148.5V150.75L150.75 151.5C153.408 154.054 154.768 156.388 150.75 158.25L152.25 156V155.25V154.5L148.5 153V150.75L150.75 150L148.5 147H143.25C145.686 151.99 146.685 155.708 139.5 158.25L144.75 152.25V151.5V150.75L138 147V150.75L135.75 149.25H135H134.25L130.5 150.75V154.5V155.25V156V158.25V159V159.75L132 162C130.073 161.108 128.737 160.345 129.75 158.25V157.5V156.75V153L125.25 150.75L120.75 155.25L123 156V158.25C119.426 159.428 117.41 163.153 114.75 158.25L117 159.75H117.75H118.5L120.75 157.5L118.5 156.75V154.5H120.75V150.75L119.25 153H115.5L117 156.75L114.75 154.5H111L113.25 156V158.25L111 159L115.5 162V164.25L111 165.75L113.25 162.75L108.75 160.5V158.25L111 156.75L105.75 154.5C106.161 161.035 102.439 166.574 96 169.5L101.25 163.5V162.75V162L99.75 159.75L102.75 162L105 159.75V159V158.25L103.5 156.75H102.75H102L98.25 158.25L96 161.25L98.25 162V164.25L88.5 171.75L96 162.75L93.75 162V159.75L96 159L92.25 156.75L90.75 160.5V161.25V162C92.0535 164.699 88.4932 166.861 86.25 168L90 163.5V162.75V162L84.75 160.5L87 162V164.25L83.25 165.75V166.5V167.25L87 169.5V171.75L82.5 173.25L84.75 170.25C80.4682 166.4 82.6523 166.298 84.75 162C82.5052 162.048 81.4905 161.96 81 164.25H78.75L78 162L77.25 164.25C73.226 164.517 69.6111 166.985 66 164.25H65.25H64.5L60.75 165.75L63 169.5L66 167.25L64.5 169.5V170.25V171V173.25V174V174.75L66 177C64.0727 176.108 62.7368 175.345 63.75 173.25V172.5V171.75L55.5 165.75L53.25 168V168.75V169.5V171.75V172.5V173.25C54.2632 175.345 52.9273 176.108 51 177L52.5 174.75V174V173.25V169.5H49.5L47.25 172.5L49.5 173.25V175.5L47.25 176.25L49.5 179.25L45 177V174.75L47.25 174L39.75 169.5L36 176.25L38.25 177V179.25L32.25 183L36 177.75L33.75 177V174.75L36 173.25H32.25L30.75 175.5V176.25V177L32.25 179.25C30.2485 178.165 28.8749 176.959 30 174.75V174V173.25L27 171.75L24.75 176.25L30.75 183L19.5 175.5L27 184.5L18.75 177H13.5L12 179.25V180V180.75L13.5 184.5H15.75L17.25 192C21.0187 193.716 24.4289 197.576 24.75 201.75L30.75 207H34.5V209.25L43.5 210.75V213L54.75 214.5V216.75H66V219H141V216.75H150.75V214.5L156 215.25L167.5 208.2L179.25 198L178.5 194.25C180.79 193.76 180.702 192.745 180.75 190.5H183L182.25 186C185.641 185.273 184.12 182.038 184.583 179.271C185.285 175.07 189.316 167.522 183 165.75L184.5 159L180.75 153L177 147L174.75 145.5H174H173.25L171 147L173.25 144L171 141.75H170.25H169.5H167.25H165.75Z" fill="#FF7F52"/>
<path d="M210.75 141.75L212.25 144L210.75 141.75Z" fill="white"/>
<path d="M117 143.25V144.75H118.5V143.25H117ZM132 143.25V144.75H133.5V143.25H132ZM145.5 143.25V144.75H147V143.25H145.5Z" fill="#FF7F52"/>
<path d="M181 143.75L181.25 144.25L181 143.75Z" fill="white"/>
<path d="M210.75 143.25L211.5 144L210.75 143.25Z" fill="#FF0101"/>
<path d="M182.25 144.75V147H183L182.25 144.75Z" fill="white"/>
<path d="M99.75 145.5L98.25 148.5L101.25 145.5H99.75ZM103.5 145.5V147H105V145.5H103.5ZM107.25 145.5V148.5H108.75V145.5H107.25ZM111 145.5L114.75 148.5L111 145.5ZM115.5 145.5V147H117V145.5H115.5ZM120.75 145.5L119.25 148.5L122.25 145.5H120.75ZM126.75 145.5V147H128.25V145.5H126.75ZM130.5 145.5L133.5 148.5L130.5 145.5ZM135.75 145.5V147H137.25V145.5H135.75ZM141.75 145.5V147H143.25V145.5H141.75Z" fill="#FF7F52"/>
<path d="M212.25 145.5C212.298 147.745 212.21 148.76 214.5 149.25V148.5L212.25 145.5Z" fill="white"/>
<path d="M124.5 147V148.5H126V147H124.5Z" fill="#FF7F52"/>
<path d="M154.5 147V149.25H156.75V147H154.5ZM158.25 147V149.25H160.5V147H158.25Z" fill="#FF8D54"/>
<path d="M182.5 147.5L182.75 148L182.5 147.5Z" fill="#FF7F52"/>
<path d="M184.5 148.5L185.25 149.25L184.5 148.5Z" fill="#FF0101"/>
<path d="M88.5 149.25V150.75H90V149.25H88.5ZM92.25 149.25L90.75 152.25L93.75 149.25H92.25ZM96 149.25V150.75H97.5V149.25H96ZM102 149.25V152.25H103.5V149.25H102ZM105.75 149.25L108.75 152.25L105.75 149.25ZM111 149.25L114.75 152.25L111 149.25ZM117 149.25V150.75H118.5V149.25H117ZM123 149.25V150.75H124.5V149.25H123ZM128.25 149.25V150.75H129.75V149.25H128.25Z" fill="#FF7F52"/>
<path d="M184.75 149.75L185 150.25L184.75 149.75Z" fill="white"/>
<path d="M84.75 150.75V152.25H86.25V150.75H84.75ZM98.25 150.75V152.25H99.75V150.75H98.25Z" fill="#FF7F52"/>
<path d="M185.25 152.25L186 153L185.25 152.25Z" fill="#FF7F52"/>
<path d="M186 152.25V154.5H186.75L186 152.25Z" fill="white"/>
<path d="M73.5 153V156H75V153H73.5ZM77.25 153V154.5H78.75V153H77.25ZM81 153L79.5 156L82.5 153H81ZM87 153V154.5H88.5V153H87ZM92.25 153L90.75 156L93.75 153H92.25ZM96 153V154.5H97.5V153H96ZM103.5 153V154.5H105V153H103.5ZM109.5 153V154.5H111V153H109.5Z" fill="#FF7F52"/>
<path d="M214.5 153L216 155.25L214.5 153Z" fill="white"/>
<path d="M69.75 154.5V156H71.25V154.5H69.75ZM84.75 154.5V156H86.25V154.5H84.75ZM100.5 154.5L99.75 156H101.25L100.5 154.5Z" fill="#FF7F52"/>
<path d="M124.5 154.5V156.75H126.75V154.5H124.5ZM144.75 158.25L149.25 154.5L144.75 158.25Z" fill="#FF8D54"/>
<path d="M214.5 154.5L215.25 155.25L214.5 154.5Z" fill="#FF7F52"/>
<path d="M186 155.25L186.75 156L186 155.25Z" fill="#FF7F52"/>
<path d="M188.25 156L189 156.75L188.25 156Z" fill="#FF0101"/>
<path d="M188.25 156.75V159.75H189L188.25 156.75Z" fill="white"/>
<path d="M47.25 158.25V159.75H48.75V158.25H47.25ZM51 158.25V159.75H52.5V158.25H51ZM68.25 158.25V159.75H69.75V158.25H68.25ZM72 158.25V159.75H73.5V158.25H72ZM83.25 158.25V159.75H84.75V158.25H83.25Z" fill="#FF7F52"/>
<path d="M216 159V162H216.75L216 159Z" fill="#FF7F52"/>
<path d="M188.25 159.75V162H189L188.25 159.75ZM38.25 160.5V162H39.75V160.5H38.25ZM42 160.5V162H43.5V160.5H42ZM45.75 160.5V162H47.25V160.5H45.75ZM53.25 160.5L56.25 163.5L53.25 160.5ZM58.5 160.5V162H60V160.5H58.5ZM62.25 160.5L60.75 163.5L63.75 160.5H62.25ZM66 160.5V162H67.5V160.5H66ZM73.5 160.5L72 163.5L75 160.5H73.5ZM79.5 160.5V162H81V160.5H79.5ZM222.25 161L222.5 161.5L222.25 161Z" fill="#FF7F52"/>
<path d="M36 162V163.5H37.5V162H36ZM49.5 162V163.5H51V162H49.5ZM68.25 162V163.5H69.75V162H68.25Z" fill="#FF7F52"/>
<path d="M105 165.75L109.5 162L105 165.75Z" fill="#FF8D54"/>
<path d="M216 162.75L219.75 164.25V163.5L216 162.75Z" fill="white"/>
<path d="M189 163.5L189.75 164.25L189 163.5Z" fill="#FF7F52"/>
<path d="M189.75 163.5V180.75H190.5L189.75 163.5Z" fill="white"/>
<path d="M27 164.25L30 167.25L27 164.25ZM30.75 164.25V165.75H32.25V164.25H30.75ZM34.5 164.25V165.75H36V164.25H34.5ZM39.75 164.25L38.25 167.25L41.25 164.25H39.75ZM43.5 164.25V167.25H45V164.25H43.5ZM47.25 164.25V165.75H48.75V164.25H47.25ZM53.25 164.25V165.75H54.75V164.25H53.25ZM58.5 164.25V165.75H60V164.25H58.5ZM15.75 165.75V167.25H17.25L15.75 165.75ZM19.5 165.75V167.25H21L19.5 165.75ZM23.25 165.75V167.25H24.75L23.25 165.75ZM49.5 165.75V167.25H51V165.75H49.5Z" fill="#FF7F52"/>
<path d="M75 169.5L79.5 165.75L75 169.5Z" fill="#FF8D54"/>
<path d="M0 166.5L0.75 167.25L0 166.5ZM0.75 167.25L1.5 168L0.75 167.25Z" fill="white"/>
<path d="M67.5 167.25L69.75 170.25L67.5 173.25C70.8017 172.42 72.6694 170.551 73.5 167.25L70.5 169.5L69.75 167.25H67.5Z" fill="#FF8D54"/>
<path d="M9.75 168V169.5H11.25V168H9.75ZM13.5 168V169.5H15V168H13.5ZM21 168L19.5 171L22.5 168H21ZM27 168V169.5H28.5V168H27ZM32.25 168V171H33.75V168H32.25ZM36 168V169.5H37.5V168H36ZM42 168V169.5H43.5V168H42ZM47.25 168L45.75 171L48.75 168H47.25ZM15.75 169.5V171H17.25L15.75 169.5ZM24.75 169.5V171H26.25V169.5H24.75Z" fill="#FF7F52"/>
<path d="M56.25 169.5L58.5 172.5L56.25 173.25V175.5L60.75 177L58.5 174L60.75 173.25V171L56.25 169.5ZM77.25 173.25L81 169.5L77.25 173.25ZM73.5 171L71.25 175.5L75.75 171H73.5Z" fill="#FF8D54"/>
<path d="M1.75 172.25L2 172.75L1.75 172.25ZM12 171.75L15 174.75L12 171.75ZM21 171.75V173.25H22.5V171.75H21ZM30.75 171.75V173.25H32.25V171.75H30.75ZM36 171.75V173.25H37.5V171.75H36ZM17.25 173.25V174.75H18.75V173.25H17.25ZM23.25 173.25V174.75H24.75L23.25 173.25Z" fill="#FF7F52"/>
<path d="M41.25 177V177.75V178.5L39.75 180.75C41.7546 180.281 44.3993 178.753 42 177V176.25V175.5L43.5 173.25C41.4954 173.719 38.8507 175.247 41.25 177Z" fill="#FF8D54"/>
<path d="M1.5 174L3.75 175.5V174.75L1.5 174Z" fill="white"/>
<path d="M4 177.5L4.25 178L4 177.5Z" fill="#FF7F52"/>
<path d="M15 178.5C16.1012 181.966 19.7845 185.649 23.25 186.75L17.25 178.5H15Z" fill="#FF8D54"/>
<path d="M4 179.75L4.25 180.25L4 179.75Z" fill="white"/>
<path d="M3.75 180.75L4.5 181.5L3.75 180.75ZM188.25 180.75V185.25H189L188.25 180.75ZM189.75 180.75L190.5 181.5L189.75 180.75ZM5.5 182L5.75 182.5L5.5 182Z" fill="#FF7F52"/>
<path d="M5.5 183.5L5.75 184L5.5 183.5Z" fill="white"/>
<path d="M5.25 184.5L6 185.25L5.25 184.5Z" fill="#FF0101"/>
<path d="M7.5 185.25L8.25 186L7.5 185.25Z" fill="#FF7F52"/>
<path d="M188.5 185.75L188.75 186.25L188.5 185.75ZM7.74997 187.25L8.00002 187.75L7.74997 187.25Z" fill="white"/>
<path d="M7.5 188.25L8.25 189L7.5 188.25ZM186 188.25V190.5H186.75L186 188.25ZM9.24997 189.5L9.50003 190L9.24997 189.5Z" fill="#FF7F52"/>
<path d="M186.25 191L186.5 191.5L186.25 191Z" fill="white"/>
<path d="M186 192L186.75 192.75L186 192Z" fill="#FF7F52"/>
<path d="M11.25 192.75L12 193.5L11.25 192.75Z" fill="white"/>
<path d="M184.75 193.25L185 193.75L184.75 193.25Z" fill="#FF7F52"/>
<path d="M13 194.75L13.25 195.25L13 194.75ZM184.75 194.75L185 195.25L184.75 194.75Z" fill="white"/>
<path d="M12.75 195.75L13.5 196.5L12.75 195.75ZM184.5 195.75L185.25 196.5L184.5 195.75Z" fill="#FF0101"/>
<path d="M15 196.5L15.75 197.25L15 196.5ZM182.5 197L182.75 197.5L182.5 197ZM16.5 198L18.75 200.25V199.5L16.5 198ZM180.75 199.5L181.5 200.25L180.75 199.5ZM18.75 200.25L19.5 201L18.75 200.25Z" fill="#FF7F52"/>
<path d="M181 200.75L181.25 201.25L181 200.75Z" fill="white"/>
<path d="M20.25 201.75L22.5 204V203.25L20.25 201.75Z" fill="#FF7F52"/>
<path d="M178.75 202.25L179 202.75L178.75 202.25Z" fill="white"/>
<path d="M178.5 203.25L179.25 204L178.5 203.25ZM22.5 204L23.25 204.75L22.5 204ZM177.25 204.5L177.5 205L177.25 204.5Z" fill="#FF7F52"/>
<path d="M24.25 206L24.5 206.5L24.25 206Z" fill="white"/>
<path d="M174.75 205.5L173.25 209.25H174L174.75 205.5Z" fill="#FF7F52"/>
<path d="M24 207L24.75 207.75L24 207Z" fill="#FF0101"/>
<path d="M26.5 208.25L26.75 208.75L26.5 208.25ZM171.25 209.75L171.5 210.25L171.25 209.75Z" fill="white"/>
<path d="M30 210.75L30.75 211.5L30 210.75ZM168.5 211L169 211.25L168.5 211Z" fill="#FF7F52"/>
<path d="M169.5 210.75L170.25 211.5L169.5 210.75Z" fill="white"/>
<path d="M167.5 212L167.75 212.5L167.5 212ZM38.75 214.75L39.25 215L38.75 214.75ZM162.5 214.75L163 215L162.5 214.75ZM45 218.25L45.75 219L45 218.25ZM49.5 218.25V219H52.5L49.5 218.25ZM153.5 218.5L154 218.75L153.5 218.5Z" fill="#FF7F52"/>
<path d="M288.424 151.536C311.336 151.536 324.008 140.144 324.008 122.992C324.008 91.248 275.752 99.184 275.752 88.688C275.752 84.976 278.568 82.8 284.968 82.8C293.416 82.8 302.76 85.744 309.928 91.76L321.96 75.248C312.872 67.44 300.968 63.344 287.272 63.344C265.384 63.344 253.352 76.144 253.352 90.48C253.352 123.376 301.608 114.032 301.608 125.296C301.608 129.52 297 132.08 289.576 132.08C277.8 132.08 268.328 126.96 262.184 120.816L250.536 137.968C259.112 146.032 271.144 151.536 288.424 151.536ZM396.897 150V130.8H356.321V116.336H396.001V97.136H356.321V83.824H396.897V64.624H334.305V150H396.897ZM482.512 150L465.104 118.64C473.168 115.824 482.128 107.888 482.128 93.04C482.128 77.168 471.376 64.624 452.432 64.624H409.68V150H431.696V121.328H442.96L457.296 150H482.512ZM449.104 102.128H431.696V83.824H449.104C454.992 83.824 459.728 87.024 459.728 92.912C459.728 98.928 454.992 102.128 449.104 102.128ZM577.249 150L545.121 64.624H517.345L485.217 150H510.177L514.401 137.712H548.065L552.289 150H577.249ZM542.049 118.512H520.417L531.297 86.384L542.049 118.512ZM605.571 150V121.328H626.307C645.507 121.328 656.003 108.4 656.003 93.04C656.003 77.552 645.507 64.624 626.307 64.624H583.555V150H605.571ZM622.979 102.128H605.571V83.824H622.979C628.867 83.824 633.603 87.152 633.603 93.04C633.603 98.8 628.867 102.128 622.979 102.128ZM745.293 150V64.624H723.277V96.496H687.821V64.624H665.805V150H687.821V115.696H723.277V150H745.293ZM782.696 150V64.624H760.68V150H782.696ZM839.911 151.536C860.519 151.536 871.655 139.504 877.159 128.624L858.215 119.664C855.399 126.448 848.103 132.08 839.911 132.08C825.959 132.08 816.103 121.328 816.103 107.376C816.103 93.296 825.959 82.672 839.911 82.672C848.103 82.672 855.399 88.304 858.215 95.088L877.159 86C871.655 74.864 860.519 63.216 839.911 63.216C813.671 63.216 793.703 81.008 793.703 107.376C793.703 133.616 813.671 151.536 839.911 151.536Z" fill="white"/>
</svg>
