<svg width="102" height="96" viewBox="0 0 102 96" fill="none" xmlns="http://www.w3.org/2000/svg">
<path d="M93.2969 8.74534H86.1615V1.49068C86.1615 0.66723 85.4943 0 84.6708 0H76.3701C75.5466 0 74.8794 0.66723 74.8794 1.49068C74.8794 2.31414 75.5466 2.98137 76.3701 2.98137H83.1801V8.74534H18.5839V2.98137H69.9914C70.8148 2.98137 71.482 2.31414 71.482 1.49068C71.482 0.66723 70.8148 0 69.9914 0H17.0932C16.2697 0 15.6025 0.66723 15.6025 1.49068V8.74534H8.46708C3.79826 8.74534 0 12.5436 0 17.2124V69.446C0 74.1146 3.79826 77.913 8.46708 77.913H40.808C40.2256 80.9358 38.0424 87.2547 29.9667 87.2547C26.6494 87.2547 23.9503 89.9536 23.9503 93.2713C23.9503 94.7758 25.1745 96 26.6791 96H31.7372C32.5607 96 33.2279 95.3328 33.2279 94.5093C33.2279 93.6859 32.5607 93.0186 31.7372 93.0186H26.942C27.0706 91.4628 28.378 90.236 29.9665 90.236H71.7973C73.3857 90.236 74.693 91.4628 74.8218 93.0186H38.1716C37.3482 93.0186 36.6809 93.6859 36.6809 94.5093C36.6809 95.3328 37.3482 96 38.1716 96H75.0849C76.5895 96 77.8137 94.7758 77.8137 93.2711C77.8137 89.9538 75.1147 87.2547 71.7973 87.2547C63.7217 87.2547 61.5396 80.9336 60.9578 77.913H93.2969C97.9655 77.913 101.764 74.1148 101.764 69.446V17.2124C101.764 12.5436 97.9657 8.74534 93.2969 8.74534ZM93.2969 11.7267C96.3218 11.7267 98.7826 14.1875 98.7826 17.2124V64.1988H95.8012V16.1988C95.8012 15.3753 95.134 14.7081 94.3106 14.7081H86.1615V11.7267H93.2969ZM86.1615 17.6894H92.8199V64.1988H86.1615V17.6894ZM83.1801 11.7267V64.1988H18.5839V11.7267H83.1801ZM8.46708 11.7267H15.6025V14.7081H7.45342C6.62996 14.7081 5.96273 15.3753 5.96273 16.1988V28.8922C5.96273 29.7157 6.62996 30.3829 7.45342 30.3829C8.27687 30.3829 8.9441 29.7157 8.9441 28.8922V17.6894H15.6025V64.1988H8.9441V35.0706C8.9441 34.2472 8.27687 33.5799 7.45342 33.5799C6.62996 33.5799 5.96273 34.2472 5.96273 35.0706V64.1988H2.98137V17.2124C2.98137 14.1875 5.44219 11.7267 8.46708 11.7267ZM59.7184 83.2831C60.4216 84.6076 61.4366 86.0375 62.8832 87.2547H38.8818C40.3285 86.0373 41.3438 84.6076 42.0472 83.2831C43.1292 81.2456 43.6132 79.2169 43.8275 77.913H57.9385C58.1527 79.2169 58.6367 81.2456 59.7184 83.2831ZM93.2969 74.9317H8.46708C5.44219 74.9317 2.98137 72.4709 2.98137 69.446V67.1801H98.7826V69.446C98.7826 72.4709 96.3218 74.9317 93.2969 74.9317Z" fill="black"/>
<path d="M22.7578 4.47217C21.9343 4.47217 21.2671 5.1394 21.2671 5.96285C21.2671 6.7863 21.9343 7.45353 22.7578 7.45353H23.7516C24.575 7.45353 25.2422 6.7863 25.2422 5.96285C25.2422 5.1394 24.575 4.47217 23.7516 4.47217H22.7578Z" fill="black"/>
<path d="M29.4658 4.47217C28.6423 4.47217 27.9751 5.1394 27.9751 5.96285C27.9751 6.7863 28.6423 7.45353 29.4658 7.45353H30.4596C31.283 7.45353 31.9503 6.7863 31.9503 5.96285C31.9503 5.1394 31.283 4.47217 30.4596 4.47217H29.4658Z" fill="black"/>
<path d="M36.1738 4.47217C35.3503 4.47217 34.6831 5.1394 34.6831 5.96285C34.6831 6.7863 35.3503 7.45353 36.1738 7.45353H37.1676C37.991 7.45353 38.6583 6.7863 38.6583 5.96285C38.6583 5.1394 37.991 4.47217 37.1676 4.47217H36.1738Z" fill="black"/>
<path d="M70.2501 48.7724C70.357 48.7907 70.4735 48.8106 72.5344 48.8106C73.5431 48.8106 75.0177 48.8058 77.1849 48.7937C78.0082 48.7891 78.6719 48.1181 78.6673 47.2946C78.6627 46.4742 77.9961 45.8123 77.1768 45.8123H77.1682C75.6259 45.821 73.4175 45.8334 71.9926 45.8282V28.2574C71.9926 27.434 71.3254 26.7667 70.5019 26.7667C69.6785 26.7667 69.0112 27.434 69.0112 28.2574V47.303C69.0114 48.029 69.5346 48.6496 70.2501 48.7724Z" fill="black"/>
<path d="M33.6889 48.2972C37.2155 48.2972 40.2863 45.9928 40.8318 42.9373C41.4587 39.4258 38.6745 37.0654 35.8599 36.0273C33.3715 35.1094 31.0661 34.1065 30.5249 33.8683C29.8397 33.3768 29.5056 32.5838 29.6289 31.7261C29.7801 30.6727 30.5807 29.83 31.7705 29.4716C34.9442 28.515 37.7911 30.8095 37.8401 30.8494C38.4704 31.3753 39.4074 31.2924 39.9356 30.6636C40.4653 30.0333 40.384 29.093 39.7538 28.5633C39.5886 28.4248 35.661 25.1854 30.9107 26.6169C28.6152 27.3083 26.9933 29.1039 26.6777 31.3024C26.3845 33.3438 27.2684 35.3072 28.9843 36.4258C29.0501 36.4689 29.1192 36.5065 29.191 36.5385C29.3003 36.5872 31.8991 37.7437 34.8278 38.8242C37.0395 39.6399 38.158 40.9483 37.8964 42.4131C37.645 43.8202 36.0849 45.3158 33.6883 45.3158C31.5463 45.3158 29.476 44.4425 28.1505 42.98C27.5976 42.3696 26.6547 42.3239 26.0449 42.8764C25.4349 43.4294 25.3884 44.3719 25.9413 44.9821C27.8232 47.0579 30.7193 48.2972 33.6889 48.2972Z" fill="black"/>
<path d="M53.6092 48.2972C56.1499 48.2972 58.4907 47.4308 60.3568 45.9809L62.1596 47.7836C62.4507 48.0746 62.8324 48.2201 63.2138 48.2201C63.5952 48.2201 63.9768 48.0746 64.268 47.7836C64.8501 47.2012 64.8501 46.2575 64.268 45.6754L62.4468 43.8542C63.818 42.0168 64.6309 39.7395 64.6309 37.2757C64.6309 31.1984 59.6866 26.2542 53.6094 26.2542C47.5322 26.2542 42.5879 31.1984 42.5879 37.2757C42.5879 43.3529 47.532 48.2972 53.6092 48.2972ZM53.6092 29.2355C58.0427 29.2355 61.6494 32.8422 61.6494 37.2757C61.6494 38.916 61.1546 40.4423 60.3079 41.7155L58.1697 39.5773C57.5873 38.9953 56.6436 38.9953 56.0615 39.5773C55.4793 40.1596 55.4793 41.1033 56.0615 41.6855L58.2271 43.8512C56.9193 44.7724 55.3269 45.3156 53.6092 45.3156C49.1757 45.3156 45.5691 41.709 45.5691 37.2755C45.5691 32.842 49.1757 29.2355 53.6092 29.2355Z" fill="black"/>
</svg>
